<svg xmlns="http://www.w3.org/2000/svg" xmlns:xlink="http://www.w3.org/1999/xlink" width="370" zoomAndPan="magnify" viewBox="0 0 277.5 119.999999" height="160" preserveAspectRatio="xMidYMid meet" version="1.0"><defs><clipPath id="4c5aa401af"><path d="M 269 0.109375 L 277 0.109375 L 277 8 L 269 8 Z M 269 0.109375 " clip-rule="nonzero"/></clipPath><clipPath id="b8c75bfc38"><path d="M 247 0.109375 L 255 0.109375 L 255 8 L 247 8 Z M 247 0.109375 " clip-rule="nonzero"/></clipPath><clipPath id="69db0d82dd"><path d="M 224 0.109375 L 233 0.109375 L 233 8 L 224 8 Z M 224 0.109375 " clip-rule="nonzero"/></clipPath><clipPath id="cc0db4feaf"><path d="M 202 0.109375 L 210 0.109375 L 210 8 L 202 8 Z M 202 0.109375 " clip-rule="nonzero"/></clipPath><clipPath id="41272a57b2"><path d="M 179 0.109375 L 188 0.109375 L 188 8 L 179 8 Z M 179 0.109375 " clip-rule="nonzero"/></clipPath><clipPath id="fd09ddaeb1"><path d="M 157 0.109375 L 165 0.109375 L 165 8 L 157 8 Z M 157 0.109375 " clip-rule="nonzero"/></clipPath><clipPath id="ad17d7346f"><path d="M 134 0.109375 L 143 0.109375 L 143 8 L 134 8 Z M 134 0.109375 " clip-rule="nonzero"/></clipPath><clipPath id="b7d2642559"><path d="M 112 0.109375 L 120 0.109375 L 120 8 L 112 8 Z M 112 0.109375 " clip-rule="nonzero"/></clipPath><clipPath id="c2b1d8a50d"><path d="M 89 0.109375 L 98 0.109375 L 98 8 L 89 8 Z M 89 0.109375 " clip-rule="nonzero"/></clipPath><clipPath id="03bdb83c62"><path d="M 67 0.109375 L 75 0.109375 L 75 8 L 67 8 Z M 67 0.109375 " clip-rule="nonzero"/></clipPath><clipPath id="e64e46acc9"><path d="M 44 0.109375 L 53 0.109375 L 53 8 L 44 8 Z M 44 0.109375 " clip-rule="nonzero"/></clipPath><clipPath id="3437d344e3"><path d="M 22 0.109375 L 30 0.109375 L 30 8 L 22 8 Z M 22 0.109375 " clip-rule="nonzero"/></clipPath><clipPath id="21098f4466"><path d="M 0 0.109375 L 8 0.109375 L 8 8 L 0 8 Z M 0 0.109375 " clip-rule="nonzero"/></clipPath><clipPath id="4a7a858a41"><path d="M 269 112 L 277 112 L 277 119.890625 L 269 119.890625 Z M 269 112 " clip-rule="nonzero"/></clipPath><clipPath id="4b0996f3d2"><path d="M 247 112 L 255 112 L 255 119.890625 L 247 119.890625 Z M 247 112 " clip-rule="nonzero"/></clipPath><clipPath id="cfa0b8da67"><path d="M 224 112 L 233 112 L 233 119.890625 L 224 119.890625 Z M 224 112 " clip-rule="nonzero"/></clipPath><clipPath id="b37f2cade0"><path d="M 202 112 L 210 112 L 210 119.890625 L 202 119.890625 Z M 202 112 " clip-rule="nonzero"/></clipPath><clipPath id="f1557e91b4"><path d="M 179 112 L 188 112 L 188 119.890625 L 179 119.890625 Z M 179 112 " clip-rule="nonzero"/></clipPath><clipPath id="612a01970c"><path d="M 157 112 L 165 112 L 165 119.890625 L 157 119.890625 Z M 157 112 " clip-rule="nonzero"/></clipPath><clipPath id="3afb9c3e50"><path d="M 134 112 L 143 112 L 143 119.890625 L 134 119.890625 Z M 134 112 " clip-rule="nonzero"/></clipPath><clipPath id="45c66a0d75"><path d="M 112 112 L 120 112 L 120 119.890625 L 112 119.890625 Z M 112 112 " clip-rule="nonzero"/></clipPath><clipPath id="6b3db37c06"><path d="M 89 112 L 98 112 L 98 119.890625 L 89 119.890625 Z M 89 112 " clip-rule="nonzero"/></clipPath><clipPath id="2194a19c28"><path d="M 67 112 L 75 112 L 75 119.890625 L 67 119.890625 Z M 67 112 " clip-rule="nonzero"/></clipPath><clipPath id="1f60306429"><path d="M 44 112 L 53 112 L 53 119.890625 L 44 119.890625 Z M 44 112 " clip-rule="nonzero"/></clipPath><clipPath id="fb5f472e8f"><path d="M 22 112 L 30 112 L 30 119.890625 L 22 119.890625 Z M 22 112 " clip-rule="nonzero"/></clipPath><clipPath id="32f58337bc"><path d="M 0 112 L 8 112 L 8 119.890625 L 0 119.890625 Z M 0 112 " clip-rule="nonzero"/></clipPath></defs><g clip-path="url(#4c5aa401af)"><path fill="#273755" d="M 277 3.851562 C 277 4.347656 276.90625 4.824219 276.714844 5.285156 C 276.527344 5.742188 276.253906 6.148438 275.90625 6.5 C 275.554688 6.847656 275.148438 7.121094 274.691406 7.308594 C 274.230469 7.5 273.753906 7.59375 273.257812 7.59375 C 272.761719 7.59375 272.285156 7.5 271.824219 7.308594 C 271.367188 7.121094 270.960938 6.847656 270.609375 6.5 C 270.257812 6.148438 269.988281 5.742188 269.800781 5.285156 C 269.609375 4.824219 269.515625 4.347656 269.515625 3.851562 C 269.515625 3.355469 269.609375 2.878906 269.800781 2.417969 C 269.988281 1.960938 270.257812 1.554688 270.609375 1.203125 C 270.960938 0.851562 271.367188 0.582031 271.824219 0.394531 C 272.285156 0.203125 272.761719 0.109375 273.257812 0.109375 C 273.753906 0.109375 274.230469 0.203125 274.691406 0.394531 C 275.148438 0.582031 275.554688 0.851562 275.90625 1.203125 C 276.253906 1.554688 276.527344 1.960938 276.714844 2.417969 C 276.90625 2.878906 277 3.355469 277 3.851562 Z M 277 3.851562 " fill-opacity="1" fill-rule="nonzero"/></g><g clip-path="url(#b8c75bfc38)"><path fill="#273755" d="M 254.542969 3.851562 C 254.542969 4.347656 254.445312 4.824219 254.257812 5.285156 C 254.066406 5.742188 253.796875 6.148438 253.445312 6.5 C 253.09375 6.847656 252.6875 7.121094 252.230469 7.308594 C 251.773438 7.5 251.292969 7.59375 250.796875 7.59375 C 250.300781 7.59375 249.824219 7.5 249.367188 7.308594 C 248.90625 7.121094 248.503906 6.847656 248.152344 6.5 C 247.800781 6.148438 247.53125 5.742188 247.339844 5.285156 C 247.148438 4.824219 247.054688 4.347656 247.054688 3.851562 C 247.054688 3.355469 247.148438 2.878906 247.339844 2.417969 C 247.53125 1.960938 247.800781 1.554688 248.152344 1.203125 C 248.503906 0.851562 248.90625 0.582031 249.367188 0.394531 C 249.824219 0.203125 250.300781 0.109375 250.796875 0.109375 C 251.292969 0.109375 251.773438 0.203125 252.230469 0.394531 C 252.6875 0.582031 253.09375 0.851562 253.445312 1.203125 C 253.796875 1.554688 254.066406 1.960938 254.257812 2.417969 C 254.445312 2.878906 254.542969 3.355469 254.542969 3.851562 Z M 254.542969 3.851562 " fill-opacity="1" fill-rule="nonzero"/></g><g clip-path="url(#69db0d82dd)"><path fill="#273755" d="M 232.082031 3.851562 C 232.082031 4.347656 231.988281 4.824219 231.796875 5.285156 C 231.605469 5.742188 231.335938 6.148438 230.984375 6.5 C 230.632812 6.847656 230.230469 7.121094 229.769531 7.308594 C 229.3125 7.5 228.835938 7.59375 228.339844 7.59375 C 227.84375 7.59375 227.363281 7.5 226.90625 7.308594 C 226.449219 7.121094 226.042969 6.847656 225.691406 6.5 C 225.339844 6.148438 225.070312 5.742188 224.878906 5.285156 C 224.691406 4.824219 224.59375 4.347656 224.59375 3.851562 C 224.59375 3.355469 224.691406 2.878906 224.878906 2.417969 C 225.070312 1.960938 225.339844 1.554688 225.691406 1.203125 C 226.042969 0.851562 226.449219 0.582031 226.90625 0.394531 C 227.363281 0.203125 227.84375 0.109375 228.339844 0.109375 C 228.835938 0.109375 229.3125 0.203125 229.769531 0.394531 C 230.230469 0.582031 230.632812 0.851562 230.984375 1.203125 C 231.335938 1.554688 231.605469 1.960938 231.796875 2.417969 C 231.988281 2.878906 232.082031 3.355469 232.082031 3.851562 Z M 232.082031 3.851562 " fill-opacity="1" fill-rule="nonzero"/></g><g clip-path="url(#cc0db4feaf)"><path fill="#273755" d="M 209.621094 3.851562 C 209.621094 4.347656 209.527344 4.824219 209.335938 5.285156 C 209.148438 5.742188 208.875 6.148438 208.527344 6.5 C 208.175781 6.847656 207.769531 7.121094 207.3125 7.308594 C 206.851562 7.5 206.375 7.59375 205.878906 7.59375 C 205.382812 7.59375 204.90625 7.5 204.445312 7.308594 C 203.988281 7.121094 203.582031 6.847656 203.230469 6.5 C 202.882812 6.148438 202.609375 5.742188 202.421875 5.285156 C 202.230469 4.824219 202.136719 4.347656 202.136719 3.851562 C 202.136719 3.355469 202.230469 2.878906 202.421875 2.417969 C 202.609375 1.960938 202.882812 1.554688 203.230469 1.203125 C 203.582031 0.851562 203.988281 0.582031 204.445312 0.394531 C 204.90625 0.203125 205.382812 0.109375 205.878906 0.109375 C 206.375 0.109375 206.851562 0.203125 207.3125 0.394531 C 207.769531 0.582031 208.175781 0.851562 208.527344 1.203125 C 208.875 1.554688 209.148438 1.960938 209.335938 2.417969 C 209.527344 2.878906 209.621094 3.355469 209.621094 3.851562 Z M 209.621094 3.851562 " fill-opacity="1" fill-rule="nonzero"/></g><g clip-path="url(#41272a57b2)"><path fill="#273755" d="M 187.164062 3.851562 C 187.164062 4.347656 187.066406 4.824219 186.878906 5.285156 C 186.6875 5.742188 186.417969 6.148438 186.066406 6.5 C 185.714844 6.847656 185.3125 7.121094 184.851562 7.308594 C 184.394531 7.5 183.914062 7.59375 183.417969 7.59375 C 182.921875 7.59375 182.445312 7.5 181.988281 7.308594 C 181.527344 7.121094 181.125 6.847656 180.773438 6.5 C 180.421875 6.148438 180.152344 5.742188 179.960938 5.285156 C 179.769531 4.824219 179.675781 4.347656 179.675781 3.851562 C 179.675781 3.355469 179.769531 2.878906 179.960938 2.417969 C 180.152344 1.960938 180.421875 1.554688 180.773438 1.203125 C 181.125 0.851562 181.527344 0.582031 181.988281 0.394531 C 182.445312 0.203125 182.921875 0.109375 183.417969 0.109375 C 183.914062 0.109375 184.394531 0.203125 184.851562 0.394531 C 185.3125 0.582031 185.714844 0.851562 186.066406 1.203125 C 186.417969 1.554688 186.6875 1.960938 186.878906 2.417969 C 187.066406 2.878906 187.164062 3.355469 187.164062 3.851562 Z M 187.164062 3.851562 " fill-opacity="1" fill-rule="nonzero"/></g><g clip-path="url(#fd09ddaeb1)"><path fill="#273755" d="M 164.703125 3.851562 C 164.703125 4.347656 164.609375 4.824219 164.417969 5.285156 C 164.226562 5.742188 163.957031 6.148438 163.605469 6.5 C 163.253906 6.847656 162.851562 7.121094 162.390625 7.308594 C 161.933594 7.5 161.457031 7.59375 160.960938 7.59375 C 160.464844 7.59375 159.984375 7.5 159.527344 7.308594 C 159.070312 7.121094 158.664062 6.847656 158.3125 6.5 C 157.960938 6.148438 157.691406 5.742188 157.5 5.285156 C 157.3125 4.824219 157.214844 4.347656 157.214844 3.851562 C 157.214844 3.355469 157.3125 2.878906 157.5 2.417969 C 157.691406 1.960938 157.960938 1.554688 158.3125 1.203125 C 158.664062 0.851562 159.070312 0.582031 159.527344 0.394531 C 159.984375 0.203125 160.464844 0.109375 160.960938 0.109375 C 161.457031 0.109375 161.933594 0.203125 162.390625 0.394531 C 162.851562 0.582031 163.253906 0.851562 163.605469 1.203125 C 163.957031 1.554688 164.226562 1.960938 164.417969 2.417969 C 164.609375 2.878906 164.703125 3.355469 164.703125 3.851562 Z M 164.703125 3.851562 " fill-opacity="1" fill-rule="nonzero"/></g><g clip-path="url(#ad17d7346f)"><path fill="#273755" d="M 142.242188 3.851562 C 142.242188 4.347656 142.148438 4.824219 141.957031 5.285156 C 141.769531 5.742188 141.5 6.148438 141.148438 6.5 C 140.796875 6.847656 140.390625 7.121094 139.933594 7.308594 C 139.472656 7.5 138.996094 7.59375 138.5 7.59375 C 138.003906 7.59375 137.527344 7.5 137.066406 7.308594 C 136.609375 7.121094 136.203125 6.847656 135.855469 6.5 C 135.503906 6.148438 135.230469 5.742188 135.042969 5.285156 C 134.851562 4.824219 134.757812 4.347656 134.757812 3.851562 C 134.757812 3.355469 134.851562 2.878906 135.042969 2.417969 C 135.230469 1.960938 135.503906 1.554688 135.855469 1.203125 C 136.203125 0.851562 136.609375 0.582031 137.066406 0.394531 C 137.527344 0.203125 138.003906 0.109375 138.5 0.109375 C 138.996094 0.109375 139.472656 0.203125 139.933594 0.394531 C 140.390625 0.582031 140.796875 0.851562 141.148438 1.203125 C 141.5 1.554688 141.769531 1.960938 141.957031 2.417969 C 142.148438 2.878906 142.242188 3.355469 142.242188 3.851562 Z M 142.242188 3.851562 " fill-opacity="1" fill-rule="nonzero"/></g><g clip-path="url(#b7d2642559)"><path fill="#273755" d="M 119.785156 3.851562 C 119.785156 4.347656 119.6875 4.824219 119.5 5.285156 C 119.308594 5.742188 119.039062 6.148438 118.6875 6.5 C 118.335938 6.847656 117.933594 7.121094 117.472656 7.308594 C 117.015625 7.5 116.539062 7.59375 116.039062 7.59375 C 115.542969 7.59375 115.066406 7.5 114.609375 7.308594 C 114.148438 7.121094 113.746094 6.847656 113.394531 6.5 C 113.042969 6.148438 112.773438 5.742188 112.582031 5.285156 C 112.394531 4.824219 112.296875 4.347656 112.296875 3.851562 C 112.296875 3.355469 112.394531 2.878906 112.582031 2.417969 C 112.773438 1.960938 113.042969 1.554688 113.394531 1.203125 C 113.746094 0.851562 114.148438 0.582031 114.609375 0.394531 C 115.066406 0.203125 115.542969 0.109375 116.039062 0.109375 C 116.539062 0.109375 117.015625 0.203125 117.472656 0.394531 C 117.933594 0.582031 118.335938 0.851562 118.6875 1.203125 C 119.039062 1.554688 119.308594 1.960938 119.5 2.417969 C 119.6875 2.878906 119.785156 3.355469 119.785156 3.851562 Z M 119.785156 3.851562 " fill-opacity="1" fill-rule="nonzero"/></g><g clip-path="url(#c2b1d8a50d)"><path fill="#273755" d="M 97.324219 3.851562 C 97.324219 4.347656 97.230469 4.824219 97.039062 5.285156 C 96.851562 5.742188 96.578125 6.148438 96.226562 6.5 C 95.878906 6.847656 95.472656 7.121094 95.015625 7.308594 C 94.554688 7.5 94.078125 7.59375 93.582031 7.59375 C 93.085938 7.59375 92.609375 7.5 92.148438 7.308594 C 91.691406 7.121094 91.285156 6.847656 90.933594 6.5 C 90.582031 6.148438 90.3125 5.742188 90.125 5.285156 C 89.933594 4.824219 89.839844 4.347656 89.839844 3.851562 C 89.839844 3.355469 89.933594 2.878906 90.125 2.417969 C 90.3125 1.960938 90.582031 1.554688 90.933594 1.203125 C 91.285156 0.851562 91.691406 0.582031 92.148438 0.394531 C 92.609375 0.203125 93.085938 0.109375 93.582031 0.109375 C 94.078125 0.109375 94.554688 0.203125 95.015625 0.394531 C 95.472656 0.582031 95.878906 0.851562 96.226562 1.203125 C 96.578125 1.554688 96.851562 1.960938 97.039062 2.417969 C 97.230469 2.878906 97.324219 3.355469 97.324219 3.851562 Z M 97.324219 3.851562 " fill-opacity="1" fill-rule="nonzero"/></g><g clip-path="url(#03bdb83c62)"><path fill="#273755" d="M 74.863281 3.851562 C 74.863281 4.347656 74.769531 4.824219 74.582031 5.285156 C 74.390625 5.742188 74.121094 6.148438 73.769531 6.5 C 73.417969 6.847656 73.011719 7.121094 72.554688 7.308594 C 72.097656 7.5 71.617188 7.59375 71.121094 7.59375 C 70.625 7.59375 70.148438 7.5 69.6875 7.308594 C 69.230469 7.121094 68.824219 6.847656 68.476562 6.5 C 68.125 6.148438 67.851562 5.742188 67.664062 5.285156 C 67.472656 4.824219 67.378906 4.347656 67.378906 3.851562 C 67.378906 3.355469 67.472656 2.878906 67.664062 2.417969 C 67.851562 1.960938 68.125 1.554688 68.476562 1.203125 C 68.824219 0.851562 69.230469 0.582031 69.6875 0.394531 C 70.148438 0.203125 70.625 0.109375 71.121094 0.109375 C 71.617188 0.109375 72.097656 0.203125 72.554688 0.394531 C 73.011719 0.582031 73.417969 0.851562 73.769531 1.203125 C 74.121094 1.554688 74.390625 1.960938 74.582031 2.417969 C 74.769531 2.878906 74.863281 3.355469 74.863281 3.851562 Z M 74.863281 3.851562 " fill-opacity="1" fill-rule="nonzero"/></g><g clip-path="url(#e64e46acc9)"><path fill="#273755" d="M 52.40625 3.851562 C 52.40625 4.347656 52.3125 4.824219 52.121094 5.285156 C 51.929688 5.742188 51.660156 6.148438 51.308594 6.5 C 50.957031 6.847656 50.554688 7.121094 50.09375 7.308594 C 49.636719 7.5 49.160156 7.59375 48.664062 7.59375 C 48.164062 7.59375 47.6875 7.5 47.230469 7.308594 C 46.769531 7.121094 46.367188 6.847656 46.015625 6.5 C 45.664062 6.148438 45.394531 5.742188 45.203125 5.285156 C 45.015625 4.824219 44.917969 4.347656 44.917969 3.851562 C 44.917969 3.355469 45.015625 2.878906 45.203125 2.417969 C 45.394531 1.960938 45.664062 1.554688 46.015625 1.203125 C 46.367188 0.851562 46.769531 0.582031 47.230469 0.394531 C 47.6875 0.203125 48.164062 0.109375 48.664062 0.109375 C 49.160156 0.109375 49.636719 0.203125 50.09375 0.394531 C 50.554688 0.582031 50.957031 0.851562 51.308594 1.203125 C 51.660156 1.554688 51.929688 1.960938 52.121094 2.417969 C 52.3125 2.878906 52.40625 3.355469 52.40625 3.851562 Z M 52.40625 3.851562 " fill-opacity="1" fill-rule="nonzero"/></g><g clip-path="url(#3437d344e3)"><path fill="#273755" d="M 29.945312 3.851562 C 29.945312 4.347656 29.851562 4.824219 29.660156 5.285156 C 29.472656 5.742188 29.199219 6.148438 28.851562 6.5 C 28.5 6.847656 28.09375 7.121094 27.636719 7.308594 C 27.175781 7.5 26.699219 7.59375 26.203125 7.59375 C 25.707031 7.59375 25.230469 7.5 24.769531 7.308594 C 24.3125 7.121094 23.90625 6.847656 23.554688 6.5 C 23.203125 6.148438 22.933594 5.742188 22.746094 5.285156 C 22.554688 4.824219 22.460938 4.347656 22.460938 3.851562 C 22.460938 3.355469 22.554688 2.878906 22.746094 2.417969 C 22.933594 1.960938 23.203125 1.554688 23.554688 1.203125 C 23.90625 0.851562 24.3125 0.582031 24.769531 0.394531 C 25.230469 0.203125 25.707031 0.109375 26.203125 0.109375 C 26.699219 0.109375 27.175781 0.203125 27.636719 0.394531 C 28.09375 0.582031 28.5 0.851562 28.851562 1.203125 C 29.199219 1.554688 29.472656 1.960938 29.660156 2.417969 C 29.851562 2.878906 29.945312 3.355469 29.945312 3.851562 Z M 29.945312 3.851562 " fill-opacity="1" fill-rule="nonzero"/></g><g clip-path="url(#21098f4466)"><path fill="#273755" d="M 7.488281 3.851562 C 7.488281 4.347656 7.390625 4.824219 7.203125 5.285156 C 7.011719 5.742188 6.742188 6.148438 6.390625 6.5 C 6.039062 6.847656 5.632812 7.121094 5.175781 7.308594 C 4.71875 7.5 4.238281 7.59375 3.742188 7.59375 C 3.246094 7.59375 2.769531 7.5 2.3125 7.308594 C 1.851562 7.121094 1.449219 6.847656 1.097656 6.5 C 0.746094 6.148438 0.476562 5.742188 0.285156 5.285156 C 0.09375 4.824219 0 4.347656 0 3.851562 C 0 3.355469 0.09375 2.878906 0.285156 2.417969 C 0.476562 1.960938 0.746094 1.554688 1.097656 1.203125 C 1.449219 0.851562 1.851562 0.582031 2.3125 0.394531 C 2.769531 0.203125 3.246094 0.109375 3.742188 0.109375 C 4.238281 0.109375 4.71875 0.203125 5.175781 0.394531 C 5.632812 0.582031 6.039062 0.851562 6.390625 1.203125 C 6.742188 1.554688 7.011719 1.960938 7.203125 2.417969 C 7.390625 2.878906 7.488281 3.355469 7.488281 3.851562 Z M 7.488281 3.851562 " fill-opacity="1" fill-rule="nonzero"/></g><path fill="#273755" d="M 277 26.3125 C 277 26.808594 276.90625 27.285156 276.714844 27.742188 C 276.527344 28.203125 276.253906 28.605469 275.90625 28.957031 C 275.554688 29.308594 275.148438 29.578125 274.691406 29.769531 C 274.230469 29.957031 273.753906 30.054688 273.257812 30.054688 C 272.761719 30.054688 272.285156 29.957031 271.824219 29.769531 C 271.367188 29.578125 270.960938 29.308594 270.609375 28.957031 C 270.257812 28.605469 269.988281 28.203125 269.800781 27.742188 C 269.609375 27.285156 269.515625 26.808594 269.515625 26.3125 C 269.515625 25.8125 269.609375 25.335938 269.800781 24.878906 C 269.988281 24.417969 270.257812 24.015625 270.609375 23.664062 C 270.960938 23.3125 271.367188 23.042969 271.824219 22.851562 C 272.285156 22.664062 272.761719 22.566406 273.257812 22.566406 C 273.753906 22.566406 274.230469 22.664062 274.691406 22.851562 C 275.148438 23.042969 275.554688 23.3125 275.90625 23.664062 C 276.253906 24.015625 276.527344 24.417969 276.714844 24.878906 C 276.90625 25.335938 277 25.8125 277 26.3125 Z M 277 26.3125 " fill-opacity="1" fill-rule="nonzero"/><path fill="#273755" d="M 254.542969 26.3125 C 254.542969 26.808594 254.445312 27.285156 254.257812 27.742188 C 254.066406 28.203125 253.796875 28.605469 253.445312 28.957031 C 253.09375 29.308594 252.6875 29.578125 252.230469 29.769531 C 251.773438 29.957031 251.292969 30.054688 250.796875 30.054688 C 250.300781 30.054688 249.824219 29.957031 249.367188 29.769531 C 248.90625 29.578125 248.503906 29.308594 248.152344 28.957031 C 247.800781 28.605469 247.53125 28.203125 247.339844 27.742188 C 247.148438 27.285156 247.054688 26.808594 247.054688 26.3125 C 247.054688 25.8125 247.148438 25.335938 247.339844 24.878906 C 247.53125 24.417969 247.800781 24.015625 248.152344 23.664062 C 248.503906 23.3125 248.90625 23.042969 249.367188 22.851562 C 249.824219 22.664062 250.300781 22.566406 250.796875 22.566406 C 251.292969 22.566406 251.773438 22.664062 252.230469 22.851562 C 252.6875 23.042969 253.09375 23.3125 253.445312 23.664062 C 253.796875 24.015625 254.066406 24.417969 254.257812 24.878906 C 254.445312 25.335938 254.542969 25.8125 254.542969 26.3125 Z M 254.542969 26.3125 " fill-opacity="1" fill-rule="nonzero"/><path fill="#273755" d="M 232.082031 26.3125 C 232.082031 26.808594 231.988281 27.285156 231.796875 27.742188 C 231.605469 28.203125 231.335938 28.605469 230.984375 28.957031 C 230.632812 29.308594 230.230469 29.578125 229.769531 29.769531 C 229.3125 29.957031 228.835938 30.054688 228.339844 30.054688 C 227.84375 30.054688 227.363281 29.957031 226.90625 29.769531 C 226.449219 29.578125 226.042969 29.308594 225.691406 28.957031 C 225.339844 28.605469 225.070312 28.203125 224.878906 27.742188 C 224.691406 27.285156 224.59375 26.808594 224.59375 26.3125 C 224.59375 25.8125 224.691406 25.335938 224.878906 24.878906 C 225.070312 24.417969 225.339844 24.015625 225.691406 23.664062 C 226.042969 23.3125 226.449219 23.042969 226.90625 22.851562 C 227.363281 22.664062 227.84375 22.566406 228.339844 22.566406 C 228.835938 22.566406 229.3125 22.664062 229.769531 22.851562 C 230.230469 23.042969 230.632812 23.3125 230.984375 23.664062 C 231.335938 24.015625 231.605469 24.417969 231.796875 24.878906 C 231.988281 25.335938 232.082031 25.8125 232.082031 26.3125 Z M 232.082031 26.3125 " fill-opacity="1" fill-rule="nonzero"/><path fill="#273755" d="M 209.621094 26.3125 C 209.621094 26.808594 209.527344 27.285156 209.335938 27.742188 C 209.148438 28.203125 208.875 28.605469 208.527344 28.957031 C 208.175781 29.308594 207.769531 29.578125 207.3125 29.769531 C 206.851562 29.957031 206.375 30.054688 205.878906 30.054688 C 205.382812 30.054688 204.90625 29.957031 204.445312 29.769531 C 203.988281 29.578125 203.582031 29.308594 203.230469 28.957031 C 202.882812 28.605469 202.609375 28.203125 202.421875 27.742188 C 202.230469 27.285156 202.136719 26.808594 202.136719 26.3125 C 202.136719 25.8125 202.230469 25.335938 202.421875 24.878906 C 202.609375 24.417969 202.882812 24.015625 203.230469 23.664062 C 203.582031 23.3125 203.988281 23.042969 204.445312 22.851562 C 204.90625 22.664062 205.382812 22.566406 205.878906 22.566406 C 206.375 22.566406 206.851562 22.664062 207.3125 22.851562 C 207.769531 23.042969 208.175781 23.3125 208.527344 23.664062 C 208.875 24.015625 209.148438 24.417969 209.335938 24.878906 C 209.527344 25.335938 209.621094 25.8125 209.621094 26.3125 Z M 209.621094 26.3125 " fill-opacity="1" fill-rule="nonzero"/><path fill="#273755" d="M 187.164062 26.3125 C 187.164062 26.808594 187.066406 27.285156 186.878906 27.742188 C 186.6875 28.203125 186.417969 28.605469 186.066406 28.957031 C 185.714844 29.308594 185.3125 29.578125 184.851562 29.769531 C 184.394531 29.957031 183.914062 30.054688 183.417969 30.054688 C 182.921875 30.054688 182.445312 29.957031 181.988281 29.769531 C 181.527344 29.578125 181.125 29.308594 180.773438 28.957031 C 180.421875 28.605469 180.152344 28.203125 179.960938 27.742188 C 179.769531 27.285156 179.675781 26.808594 179.675781 26.3125 C 179.675781 25.8125 179.769531 25.335938 179.960938 24.878906 C 180.152344 24.417969 180.421875 24.015625 180.773438 23.664062 C 181.125 23.3125 181.527344 23.042969 181.988281 22.851562 C 182.445312 22.664062 182.921875 22.566406 183.417969 22.566406 C 183.914062 22.566406 184.394531 22.664062 184.851562 22.851562 C 185.3125 23.042969 185.714844 23.3125 186.066406 23.664062 C 186.417969 24.015625 186.6875 24.417969 186.878906 24.878906 C 187.066406 25.335938 187.164062 25.8125 187.164062 26.3125 Z M 187.164062 26.3125 " fill-opacity="1" fill-rule="nonzero"/><path fill="#273755" d="M 164.703125 26.3125 C 164.703125 26.808594 164.609375 27.285156 164.417969 27.742188 C 164.226562 28.203125 163.957031 28.605469 163.605469 28.957031 C 163.253906 29.308594 162.851562 29.578125 162.390625 29.769531 C 161.933594 29.957031 161.457031 30.054688 160.960938 30.054688 C 160.464844 30.054688 159.984375 29.957031 159.527344 29.769531 C 159.070312 29.578125 158.664062 29.308594 158.3125 28.957031 C 157.960938 28.605469 157.691406 28.203125 157.5 27.742188 C 157.3125 27.285156 157.214844 26.808594 157.214844 26.3125 C 157.214844 25.8125 157.3125 25.335938 157.5 24.878906 C 157.691406 24.417969 157.960938 24.015625 158.3125 23.664062 C 158.664062 23.3125 159.070312 23.042969 159.527344 22.851562 C 159.984375 22.664062 160.464844 22.566406 160.960938 22.566406 C 161.457031 22.566406 161.933594 22.664062 162.390625 22.851562 C 162.851562 23.042969 163.253906 23.3125 163.605469 23.664062 C 163.957031 24.015625 164.226562 24.417969 164.417969 24.878906 C 164.609375 25.335938 164.703125 25.8125 164.703125 26.3125 Z M 164.703125 26.3125 " fill-opacity="1" fill-rule="nonzero"/><path fill="#273755" d="M 142.242188 26.3125 C 142.242188 26.808594 142.148438 27.285156 141.957031 27.742188 C 141.769531 28.203125 141.5 28.605469 141.148438 28.957031 C 140.796875 29.308594 140.390625 29.578125 139.933594 29.769531 C 139.472656 29.957031 138.996094 30.054688 138.5 30.054688 C 138.003906 30.054688 137.527344 29.957031 137.066406 29.769531 C 136.609375 29.578125 136.203125 29.308594 135.855469 28.957031 C 135.503906 28.605469 135.230469 28.203125 135.042969 27.742188 C 134.851562 27.285156 134.757812 26.808594 134.757812 26.3125 C 134.757812 25.8125 134.851562 25.335938 135.042969 24.878906 C 135.230469 24.417969 135.503906 24.015625 135.855469 23.664062 C 136.203125 23.3125 136.609375 23.042969 137.066406 22.851562 C 137.527344 22.664062 138.003906 22.566406 138.5 22.566406 C 138.996094 22.566406 139.472656 22.664062 139.933594 22.851562 C 140.390625 23.042969 140.796875 23.3125 141.148438 23.664062 C 141.5 24.015625 141.769531 24.417969 141.957031 24.878906 C 142.148438 25.335938 142.242188 25.8125 142.242188 26.3125 Z M 142.242188 26.3125 " fill-opacity="1" fill-rule="nonzero"/><path fill="#273755" d="M 119.785156 26.3125 C 119.785156 26.808594 119.6875 27.285156 119.5 27.742188 C 119.308594 28.203125 119.039062 28.605469 118.6875 28.957031 C 118.335938 29.308594 117.933594 29.578125 117.472656 29.769531 C 117.015625 29.957031 116.539062 30.054688 116.039062 30.054688 C 115.542969 30.054688 115.066406 29.957031 114.609375 29.769531 C 114.148438 29.578125 113.746094 29.308594 113.394531 28.957031 C 113.042969 28.605469 112.773438 28.203125 112.582031 27.742188 C 112.394531 27.285156 112.296875 26.808594 112.296875 26.3125 C 112.296875 25.8125 112.394531 25.335938 112.582031 24.878906 C 112.773438 24.417969 113.042969 24.015625 113.394531 23.664062 C 113.746094 23.3125 114.148438 23.042969 114.609375 22.851562 C 115.066406 22.664062 115.542969 22.566406 116.039062 22.566406 C 116.539062 22.566406 117.015625 22.664062 117.472656 22.851562 C 117.933594 23.042969 118.335938 23.3125 118.6875 23.664062 C 119.039062 24.015625 119.308594 24.417969 119.5 24.878906 C 119.6875 25.335938 119.785156 25.8125 119.785156 26.3125 Z M 119.785156 26.3125 " fill-opacity="1" fill-rule="nonzero"/><path fill="#273755" d="M 97.324219 26.3125 C 97.324219 26.808594 97.230469 27.285156 97.039062 27.742188 C 96.851562 28.203125 96.578125 28.605469 96.226562 28.957031 C 95.878906 29.308594 95.472656 29.578125 95.015625 29.769531 C 94.554688 29.957031 94.078125 30.054688 93.582031 30.054688 C 93.085938 30.054688 92.609375 29.957031 92.148438 29.769531 C 91.691406 29.578125 91.285156 29.308594 90.933594 28.957031 C 90.582031 28.605469 90.3125 28.203125 90.125 27.742188 C 89.933594 27.285156 89.839844 26.808594 89.839844 26.3125 C 89.839844 25.8125 89.933594 25.335938 90.125 24.878906 C 90.3125 24.417969 90.582031 24.015625 90.933594 23.664062 C 91.285156 23.3125 91.691406 23.042969 92.148438 22.851562 C 92.609375 22.664062 93.085938 22.566406 93.582031 22.566406 C 94.078125 22.566406 94.554688 22.664062 95.015625 22.851562 C 95.472656 23.042969 95.878906 23.3125 96.226562 23.664062 C 96.578125 24.015625 96.851562 24.417969 97.039062 24.878906 C 97.230469 25.335938 97.324219 25.8125 97.324219 26.3125 Z M 97.324219 26.3125 " fill-opacity="1" fill-rule="nonzero"/><path fill="#273755" d="M 74.863281 26.3125 C 74.863281 26.808594 74.769531 27.285156 74.582031 27.742188 C 74.390625 28.203125 74.121094 28.605469 73.769531 28.957031 C 73.417969 29.308594 73.011719 29.578125 72.554688 29.769531 C 72.097656 29.957031 71.617188 30.054688 71.121094 30.054688 C 70.625 30.054688 70.148438 29.957031 69.6875 29.769531 C 69.230469 29.578125 68.824219 29.308594 68.476562 28.957031 C 68.125 28.605469 67.851562 28.203125 67.664062 27.742188 C 67.472656 27.285156 67.378906 26.808594 67.378906 26.3125 C 67.378906 25.8125 67.472656 25.335938 67.664062 24.878906 C 67.851562 24.417969 68.125 24.015625 68.476562 23.664062 C 68.824219 23.3125 69.230469 23.042969 69.6875 22.851562 C 70.148438 22.664062 70.625 22.566406 71.121094 22.566406 C 71.617188 22.566406 72.097656 22.664062 72.554688 22.851562 C 73.011719 23.042969 73.417969 23.3125 73.769531 23.664062 C 74.121094 24.015625 74.390625 24.417969 74.582031 24.878906 C 74.769531 25.335938 74.863281 25.8125 74.863281 26.3125 Z M 74.863281 26.3125 " fill-opacity="1" fill-rule="nonzero"/><path fill="#273755" d="M 52.40625 26.3125 C 52.40625 26.808594 52.3125 27.285156 52.121094 27.742188 C 51.929688 28.203125 51.660156 28.605469 51.308594 28.957031 C 50.957031 29.308594 50.554688 29.578125 50.09375 29.769531 C 49.636719 29.957031 49.160156 30.054688 48.664062 30.054688 C 48.164062 30.054688 47.6875 29.957031 47.230469 29.769531 C 46.769531 29.578125 46.367188 29.308594 46.015625 28.957031 C 45.664062 28.605469 45.394531 28.203125 45.203125 27.742188 C 45.015625 27.285156 44.917969 26.808594 44.917969 26.3125 C 44.917969 25.8125 45.015625 25.335938 45.203125 24.878906 C 45.394531 24.417969 45.664062 24.015625 46.015625 23.664062 C 46.367188 23.3125 46.769531 23.042969 47.230469 22.851562 C 47.6875 22.664062 48.164062 22.566406 48.664062 22.566406 C 49.160156 22.566406 49.636719 22.664062 50.09375 22.851562 C 50.554688 23.042969 50.957031 23.3125 51.308594 23.664062 C 51.660156 24.015625 51.929688 24.417969 52.121094 24.878906 C 52.3125 25.335938 52.40625 25.8125 52.40625 26.3125 Z M 52.40625 26.3125 " fill-opacity="1" fill-rule="nonzero"/><path fill="#273755" d="M 29.945312 26.3125 C 29.945312 26.808594 29.851562 27.285156 29.660156 27.742188 C 29.472656 28.203125 29.199219 28.605469 28.851562 28.957031 C 28.5 29.308594 28.09375 29.578125 27.636719 29.769531 C 27.175781 29.957031 26.699219 30.054688 26.203125 30.054688 C 25.707031 30.054688 25.230469 29.957031 24.769531 29.769531 C 24.3125 29.578125 23.90625 29.308594 23.554688 28.957031 C 23.203125 28.605469 22.933594 28.203125 22.746094 27.742188 C 22.554688 27.285156 22.460938 26.808594 22.460938 26.3125 C 22.460938 25.8125 22.554688 25.335938 22.746094 24.878906 C 22.933594 24.417969 23.203125 24.015625 23.554688 23.664062 C 23.90625 23.3125 24.3125 23.042969 24.769531 22.851562 C 25.230469 22.664062 25.707031 22.566406 26.203125 22.566406 C 26.699219 22.566406 27.175781 22.664062 27.636719 22.851562 C 28.09375 23.042969 28.5 23.3125 28.851562 23.664062 C 29.199219 24.015625 29.472656 24.417969 29.660156 24.878906 C 29.851562 25.335938 29.945312 25.8125 29.945312 26.3125 Z M 29.945312 26.3125 " fill-opacity="1" fill-rule="nonzero"/><path fill="#273755" d="M 7.488281 26.3125 C 7.488281 26.808594 7.390625 27.285156 7.203125 27.742188 C 7.011719 28.203125 6.742188 28.605469 6.390625 28.957031 C 6.039062 29.308594 5.632812 29.578125 5.175781 29.769531 C 4.71875 29.957031 4.238281 30.054688 3.742188 30.054688 C 3.246094 30.054688 2.769531 29.957031 2.3125 29.769531 C 1.851562 29.578125 1.449219 29.308594 1.097656 28.957031 C 0.746094 28.605469 0.476562 28.203125 0.285156 27.742188 C 0.09375 27.285156 0 26.808594 0 26.3125 C 0 25.8125 0.09375 25.335938 0.285156 24.878906 C 0.476562 24.417969 0.746094 24.015625 1.097656 23.664062 C 1.449219 23.3125 1.851562 23.042969 2.3125 22.851562 C 2.769531 22.664062 3.246094 22.566406 3.742188 22.566406 C 4.238281 22.566406 4.71875 22.664062 5.175781 22.851562 C 5.632812 23.042969 6.039062 23.3125 6.390625 23.664062 C 6.742188 24.015625 7.011719 24.417969 7.203125 24.878906 C 7.390625 25.335938 7.488281 25.8125 7.488281 26.3125 Z M 7.488281 26.3125 " fill-opacity="1" fill-rule="nonzero"/><path fill="#323266" d="M 277 48.769531 C 277 49.265625 276.90625 49.742188 276.714844 50.203125 C 276.527344 50.660156 276.253906 51.066406 275.90625 51.417969 C 275.554688 51.769531 275.148438 52.039062 274.691406 52.230469 C 274.230469 52.417969 273.753906 52.511719 273.257812 52.511719 C 272.761719 52.511719 272.285156 52.417969 271.824219 52.230469 C 271.367188 52.039062 270.960938 51.769531 270.609375 51.417969 C 270.257812 51.066406 269.988281 50.660156 269.800781 50.203125 C 269.609375 49.742188 269.515625 49.265625 269.515625 48.769531 C 269.515625 48.273438 269.609375 47.796875 269.800781 47.335938 C 269.988281 46.878906 270.257812 46.472656 270.609375 46.125 C 270.960938 45.773438 271.367188 45.5 271.824219 45.3125 C 272.285156 45.121094 272.761719 45.027344 273.257812 45.027344 C 273.753906 45.027344 274.230469 45.121094 274.691406 45.3125 C 275.148438 45.5 275.554688 45.773438 275.90625 46.125 C 276.253906 46.472656 276.527344 46.878906 276.714844 47.335938 C 276.90625 47.796875 277 48.273438 277 48.769531 Z M 277 48.769531 " fill-opacity="1" fill-rule="nonzero"/><path fill="#323266" d="M 254.542969 48.769531 C 254.542969 49.265625 254.445312 49.742188 254.257812 50.203125 C 254.066406 50.660156 253.796875 51.066406 253.445312 51.417969 C 253.09375 51.769531 252.6875 52.039062 252.230469 52.230469 C 251.773438 52.417969 251.292969 52.511719 250.796875 52.511719 C 250.300781 52.511719 249.824219 52.417969 249.367188 52.230469 C 248.90625 52.039062 248.503906 51.769531 248.152344 51.417969 C 247.800781 51.066406 247.53125 50.660156 247.339844 50.203125 C 247.148438 49.742188 247.054688 49.265625 247.054688 48.769531 C 247.054688 48.273438 247.148438 47.796875 247.339844 47.335938 C 247.53125 46.878906 247.800781 46.472656 248.152344 46.125 C 248.503906 45.773438 248.90625 45.5 249.367188 45.3125 C 249.824219 45.121094 250.300781 45.027344 250.796875 45.027344 C 251.292969 45.027344 251.773438 45.121094 252.230469 45.3125 C 252.6875 45.5 253.09375 45.773438 253.445312 46.125 C 253.796875 46.472656 254.066406 46.878906 254.257812 47.335938 C 254.445312 47.796875 254.542969 48.273438 254.542969 48.769531 Z M 254.542969 48.769531 " fill-opacity="1" fill-rule="nonzero"/><path fill="#323266" d="M 232.082031 48.769531 C 232.082031 49.265625 231.988281 49.742188 231.796875 50.203125 C 231.605469 50.660156 231.335938 51.066406 230.984375 51.417969 C 230.632812 51.769531 230.230469 52.039062 229.769531 52.230469 C 229.3125 52.417969 228.835938 52.511719 228.339844 52.511719 C 227.84375 52.511719 227.363281 52.417969 226.90625 52.230469 C 226.449219 52.039062 226.042969 51.769531 225.691406 51.417969 C 225.339844 51.066406 225.070312 50.660156 224.878906 50.203125 C 224.691406 49.742188 224.59375 49.265625 224.59375 48.769531 C 224.59375 48.273438 224.691406 47.796875 224.878906 47.335938 C 225.070312 46.878906 225.339844 46.472656 225.691406 46.125 C 226.042969 45.773438 226.449219 45.5 226.90625 45.3125 C 227.363281 45.121094 227.84375 45.027344 228.339844 45.027344 C 228.835938 45.027344 229.3125 45.121094 229.769531 45.3125 C 230.230469 45.5 230.632812 45.773438 230.984375 46.125 C 231.335938 46.472656 231.605469 46.878906 231.796875 47.335938 C 231.988281 47.796875 232.082031 48.273438 232.082031 48.769531 Z M 232.082031 48.769531 " fill-opacity="1" fill-rule="nonzero"/><path fill="#323266" d="M 209.621094 48.769531 C 209.621094 49.265625 209.527344 49.742188 209.335938 50.203125 C 209.148438 50.660156 208.875 51.066406 208.527344 51.417969 C 208.175781 51.769531 207.769531 52.039062 207.3125 52.230469 C 206.851562 52.417969 206.375 52.511719 205.878906 52.511719 C 205.382812 52.511719 204.90625 52.417969 204.445312 52.230469 C 203.988281 52.039062 203.582031 51.769531 203.230469 51.417969 C 202.882812 51.066406 202.609375 50.660156 202.421875 50.203125 C 202.230469 49.742188 202.136719 49.265625 202.136719 48.769531 C 202.136719 48.273438 202.230469 47.796875 202.421875 47.335938 C 202.609375 46.878906 202.882812 46.472656 203.230469 46.125 C 203.582031 45.773438 203.988281 45.5 204.445312 45.3125 C 204.90625 45.121094 205.382812 45.027344 205.878906 45.027344 C 206.375 45.027344 206.851562 45.121094 207.3125 45.3125 C 207.769531 45.5 208.175781 45.773438 208.527344 46.125 C 208.875 46.472656 209.148438 46.878906 209.335938 47.335938 C 209.527344 47.796875 209.621094 48.273438 209.621094 48.769531 Z M 209.621094 48.769531 " fill-opacity="1" fill-rule="nonzero"/><path fill="#323266" d="M 187.164062 48.769531 C 187.164062 49.265625 187.066406 49.742188 186.878906 50.203125 C 186.6875 50.660156 186.417969 51.066406 186.066406 51.417969 C 185.714844 51.769531 185.3125 52.039062 184.851562 52.230469 C 184.394531 52.417969 183.914062 52.511719 183.417969 52.511719 C 182.921875 52.511719 182.445312 52.417969 181.988281 52.230469 C 181.527344 52.039062 181.125 51.769531 180.773438 51.417969 C 180.421875 51.066406 180.152344 50.660156 179.960938 50.203125 C 179.769531 49.742188 179.675781 49.265625 179.675781 48.769531 C 179.675781 48.273438 179.769531 47.796875 179.960938 47.335938 C 180.152344 46.878906 180.421875 46.472656 180.773438 46.125 C 181.125 45.773438 181.527344 45.5 181.988281 45.3125 C 182.445312 45.121094 182.921875 45.027344 183.417969 45.027344 C 183.914062 45.027344 184.394531 45.121094 184.851562 45.3125 C 185.3125 45.5 185.714844 45.773438 186.066406 46.125 C 186.417969 46.472656 186.6875 46.878906 186.878906 47.335938 C 187.066406 47.796875 187.164062 48.273438 187.164062 48.769531 Z M 187.164062 48.769531 " fill-opacity="1" fill-rule="nonzero"/><path fill="#323266" d="M 164.703125 48.769531 C 164.703125 49.265625 164.609375 49.742188 164.417969 50.203125 C 164.226562 50.660156 163.957031 51.066406 163.605469 51.417969 C 163.253906 51.769531 162.851562 52.039062 162.390625 52.230469 C 161.933594 52.417969 161.457031 52.511719 160.960938 52.511719 C 160.464844 52.511719 159.984375 52.417969 159.527344 52.230469 C 159.070312 52.039062 158.664062 51.769531 158.3125 51.417969 C 157.960938 51.066406 157.691406 50.660156 157.5 50.203125 C 157.3125 49.742188 157.214844 49.265625 157.214844 48.769531 C 157.214844 48.273438 157.3125 47.796875 157.5 47.335938 C 157.691406 46.878906 157.960938 46.472656 158.3125 46.125 C 158.664062 45.773438 159.070312 45.5 159.527344 45.3125 C 159.984375 45.121094 160.464844 45.027344 160.960938 45.027344 C 161.457031 45.027344 161.933594 45.121094 162.390625 45.3125 C 162.851562 45.5 163.253906 45.773438 163.605469 46.125 C 163.957031 46.472656 164.226562 46.878906 164.417969 47.335938 C 164.609375 47.796875 164.703125 48.273438 164.703125 48.769531 Z M 164.703125 48.769531 " fill-opacity="1" fill-rule="nonzero"/><path fill="#ffffff" d="M 142.242188 48.769531 C 142.242188 49.265625 142.148438 49.742188 141.957031 50.203125 C 141.769531 50.660156 141.5 51.066406 141.148438 51.417969 C 140.796875 51.769531 140.390625 52.039062 139.933594 52.230469 C 139.472656 52.417969 138.996094 52.511719 138.5 52.511719 C 138.003906 52.511719 137.527344 52.417969 137.066406 52.230469 C 136.609375 52.039062 136.203125 51.769531 135.855469 51.417969 C 135.503906 51.066406 135.230469 50.660156 135.042969 50.203125 C 134.851562 49.742188 134.757812 49.265625 134.757812 48.769531 C 134.757812 48.273438 134.851562 47.796875 135.042969 47.335938 C 135.230469 46.878906 135.503906 46.472656 135.855469 46.125 C 136.203125 45.773438 136.609375 45.5 137.066406 45.3125 C 137.527344 45.121094 138.003906 45.027344 138.5 45.027344 C 138.996094 45.027344 139.472656 45.121094 139.933594 45.3125 C 140.390625 45.5 140.796875 45.773438 141.148438 46.125 C 141.5 46.472656 141.769531 46.878906 141.957031 47.335938 C 142.148438 47.796875 142.242188 48.273438 142.242188 48.769531 Z M 142.242188 48.769531 " fill-opacity="1" fill-rule="nonzero"/><path fill="#ffffff" d="M 119.785156 48.769531 C 119.785156 49.265625 119.6875 49.742188 119.5 50.203125 C 119.308594 50.660156 119.039062 51.066406 118.6875 51.417969 C 118.335938 51.769531 117.933594 52.039062 117.472656 52.230469 C 117.015625 52.417969 116.539062 52.511719 116.039062 52.511719 C 115.542969 52.511719 115.066406 52.417969 114.609375 52.230469 C 114.148438 52.039062 113.746094 51.769531 113.394531 51.417969 C 113.042969 51.066406 112.773438 50.660156 112.582031 50.203125 C 112.394531 49.742188 112.296875 49.265625 112.296875 48.769531 C 112.296875 48.273438 112.394531 47.796875 112.582031 47.335938 C 112.773438 46.878906 113.042969 46.472656 113.394531 46.125 C 113.746094 45.773438 114.148438 45.5 114.609375 45.3125 C 115.066406 45.121094 115.542969 45.027344 116.039062 45.027344 C 116.539062 45.027344 117.015625 45.121094 117.472656 45.3125 C 117.933594 45.5 118.335938 45.773438 118.6875 46.125 C 119.039062 46.472656 119.308594 46.878906 119.5 47.335938 C 119.6875 47.796875 119.785156 48.273438 119.785156 48.769531 Z M 119.785156 48.769531 " fill-opacity="1" fill-rule="nonzero"/><path fill="#ffffff" d="M 97.324219 48.769531 C 97.324219 49.265625 97.230469 49.742188 97.039062 50.203125 C 96.851562 50.660156 96.578125 51.066406 96.226562 51.417969 C 95.878906 51.769531 95.472656 52.039062 95.015625 52.230469 C 94.554688 52.417969 94.078125 52.511719 93.582031 52.511719 C 93.085938 52.511719 92.609375 52.417969 92.148438 52.230469 C 91.691406 52.039062 91.285156 51.769531 90.933594 51.417969 C 90.582031 51.066406 90.3125 50.660156 90.125 50.203125 C 89.933594 49.742188 89.839844 49.265625 89.839844 48.769531 C 89.839844 48.273438 89.933594 47.796875 90.125 47.335938 C 90.3125 46.878906 90.582031 46.472656 90.933594 46.125 C 91.285156 45.773438 91.691406 45.5 92.148438 45.3125 C 92.609375 45.121094 93.085938 45.027344 93.582031 45.027344 C 94.078125 45.027344 94.554688 45.121094 95.015625 45.3125 C 95.472656 45.5 95.878906 45.773438 96.226562 46.125 C 96.578125 46.472656 96.851562 46.878906 97.039062 47.335938 C 97.230469 47.796875 97.324219 48.273438 97.324219 48.769531 Z M 97.324219 48.769531 " fill-opacity="1" fill-rule="nonzero"/><path fill="#ffffff" d="M 74.863281 48.769531 C 74.863281 49.265625 74.769531 49.742188 74.582031 50.203125 C 74.390625 50.660156 74.121094 51.066406 73.769531 51.417969 C 73.417969 51.769531 73.011719 52.039062 72.554688 52.230469 C 72.097656 52.417969 71.617188 52.511719 71.121094 52.511719 C 70.625 52.511719 70.148438 52.417969 69.6875 52.230469 C 69.230469 52.039062 68.824219 51.769531 68.476562 51.417969 C 68.125 51.066406 67.851562 50.660156 67.664062 50.203125 C 67.472656 49.742188 67.378906 49.265625 67.378906 48.769531 C 67.378906 48.273438 67.472656 47.796875 67.664062 47.335938 C 67.851562 46.878906 68.125 46.472656 68.476562 46.125 C 68.824219 45.773438 69.230469 45.5 69.6875 45.3125 C 70.148438 45.121094 70.625 45.027344 71.121094 45.027344 C 71.617188 45.027344 72.097656 45.121094 72.554688 45.3125 C 73.011719 45.5 73.417969 45.773438 73.769531 46.125 C 74.121094 46.472656 74.390625 46.878906 74.582031 47.335938 C 74.769531 47.796875 74.863281 48.273438 74.863281 48.769531 Z M 74.863281 48.769531 " fill-opacity="1" fill-rule="nonzero"/><path fill="#ffffff" d="M 52.40625 48.769531 C 52.40625 49.265625 52.3125 49.742188 52.121094 50.203125 C 51.929688 50.660156 51.660156 51.066406 51.308594 51.417969 C 50.957031 51.769531 50.554688 52.039062 50.09375 52.230469 C 49.636719 52.417969 49.160156 52.511719 48.664062 52.511719 C 48.164062 52.511719 47.6875 52.417969 47.230469 52.230469 C 46.769531 52.039062 46.367188 51.769531 46.015625 51.417969 C 45.664062 51.066406 45.394531 50.660156 45.203125 50.203125 C 45.015625 49.742188 44.917969 49.265625 44.917969 48.769531 C 44.917969 48.273438 45.015625 47.796875 45.203125 47.335938 C 45.394531 46.878906 45.664062 46.472656 46.015625 46.125 C 46.367188 45.773438 46.769531 45.5 47.230469 45.3125 C 47.6875 45.121094 48.164062 45.027344 48.664062 45.027344 C 49.160156 45.027344 49.636719 45.121094 50.09375 45.3125 C 50.554688 45.5 50.957031 45.773438 51.308594 46.125 C 51.660156 46.472656 51.929688 46.878906 52.121094 47.335938 C 52.3125 47.796875 52.40625 48.273438 52.40625 48.769531 Z M 52.40625 48.769531 " fill-opacity="1" fill-rule="nonzero"/><path fill="#ffffff" d="M 29.945312 48.769531 C 29.945312 49.265625 29.851562 49.742188 29.660156 50.203125 C 29.472656 50.660156 29.199219 51.066406 28.851562 51.417969 C 28.5 51.769531 28.09375 52.039062 27.636719 52.230469 C 27.175781 52.417969 26.699219 52.511719 26.203125 52.511719 C 25.707031 52.511719 25.230469 52.417969 24.769531 52.230469 C 24.3125 52.039062 23.90625 51.769531 23.554688 51.417969 C 23.203125 51.066406 22.933594 50.660156 22.746094 50.203125 C 22.554688 49.742188 22.460938 49.265625 22.460938 48.769531 C 22.460938 48.273438 22.554688 47.796875 22.746094 47.335938 C 22.933594 46.878906 23.203125 46.472656 23.554688 46.125 C 23.90625 45.773438 24.3125 45.5 24.769531 45.3125 C 25.230469 45.121094 25.707031 45.027344 26.203125 45.027344 C 26.699219 45.027344 27.175781 45.121094 27.636719 45.3125 C 28.09375 45.5 28.5 45.773438 28.851562 46.125 C 29.199219 46.472656 29.472656 46.878906 29.660156 47.335938 C 29.851562 47.796875 29.945312 48.273438 29.945312 48.769531 Z M 29.945312 48.769531 " fill-opacity="1" fill-rule="nonzero"/><path fill="#ffffff" d="M 7.488281 48.769531 C 7.488281 49.265625 7.390625 49.742188 7.203125 50.203125 C 7.011719 50.660156 6.742188 51.066406 6.390625 51.417969 C 6.039062 51.769531 5.632812 52.039062 5.175781 52.230469 C 4.71875 52.417969 4.238281 52.511719 3.742188 52.511719 C 3.246094 52.511719 2.769531 52.417969 2.3125 52.230469 C 1.851562 52.039062 1.449219 51.769531 1.097656 51.417969 C 0.746094 51.066406 0.476562 50.660156 0.285156 50.203125 C 0.09375 49.742188 0 49.265625 0 48.769531 C 0 48.273438 0.09375 47.796875 0.285156 47.335938 C 0.476562 46.878906 0.746094 46.472656 1.097656 46.125 C 1.449219 45.773438 1.851562 45.5 2.3125 45.3125 C 2.769531 45.121094 3.246094 45.027344 3.742188 45.027344 C 4.238281 45.027344 4.71875 45.121094 5.175781 45.3125 C 5.632812 45.5 6.039062 45.773438 6.390625 46.125 C 6.742188 46.472656 7.011719 46.878906 7.203125 47.335938 C 7.390625 47.796875 7.488281 48.273438 7.488281 48.769531 Z M 7.488281 48.769531 " fill-opacity="1" fill-rule="nonzero"/><path fill="#323266" d="M 277 71.230469 C 277 71.726562 276.90625 72.203125 276.714844 72.664062 C 276.527344 73.121094 276.253906 73.527344 275.90625 73.875 C 275.554688 74.226562 275.148438 74.5 274.691406 74.6875 C 274.230469 74.878906 273.753906 74.972656 273.257812 74.972656 C 272.761719 74.972656 272.285156 74.878906 271.824219 74.6875 C 271.367188 74.5 270.960938 74.226562 270.609375 73.875 C 270.257812 73.527344 269.988281 73.121094 269.800781 72.664062 C 269.609375 72.203125 269.515625 71.726562 269.515625 71.230469 C 269.515625 70.734375 269.609375 70.257812 269.800781 69.796875 C 269.988281 69.339844 270.257812 68.933594 270.609375 68.582031 C 270.960938 68.230469 271.367188 67.960938 271.824219 67.769531 C 272.285156 67.582031 272.761719 67.488281 273.257812 67.488281 C 273.753906 67.488281 274.230469 67.582031 274.691406 67.769531 C 275.148438 67.960938 275.554688 68.230469 275.90625 68.582031 C 276.253906 68.933594 276.527344 69.339844 276.714844 69.796875 C 276.90625 70.257812 277 70.734375 277 71.230469 Z M 277 71.230469 " fill-opacity="1" fill-rule="nonzero"/><path fill="#323266" d="M 254.542969 71.230469 C 254.542969 71.726562 254.445312 72.203125 254.257812 72.664062 C 254.066406 73.121094 253.796875 73.527344 253.445312 73.875 C 253.09375 74.226562 252.6875 74.5 252.230469 74.6875 C 251.773438 74.878906 251.292969 74.972656 250.796875 74.972656 C 250.300781 74.972656 249.824219 74.878906 249.367188 74.6875 C 248.90625 74.5 248.503906 74.226562 248.152344 73.875 C 247.800781 73.527344 247.53125 73.121094 247.339844 72.664062 C 247.148438 72.203125 247.054688 71.726562 247.054688 71.230469 C 247.054688 70.734375 247.148438 70.257812 247.339844 69.796875 C 247.53125 69.339844 247.800781 68.933594 248.152344 68.582031 C 248.503906 68.230469 248.90625 67.960938 249.367188 67.769531 C 249.824219 67.582031 250.300781 67.488281 250.796875 67.488281 C 251.292969 67.488281 251.773438 67.582031 252.230469 67.769531 C 252.6875 67.960938 253.09375 68.230469 253.445312 68.582031 C 253.796875 68.933594 254.066406 69.339844 254.257812 69.796875 C 254.445312 70.257812 254.542969 70.734375 254.542969 71.230469 Z M 254.542969 71.230469 " fill-opacity="1" fill-rule="nonzero"/><path fill="#323266" d="M 232.082031 71.230469 C 232.082031 71.726562 231.988281 72.203125 231.796875 72.664062 C 231.605469 73.121094 231.335938 73.527344 230.984375 73.875 C 230.632812 74.226562 230.230469 74.5 229.769531 74.6875 C 229.3125 74.878906 228.835938 74.972656 228.339844 74.972656 C 227.84375 74.972656 227.363281 74.878906 226.90625 74.6875 C 226.449219 74.5 226.042969 74.226562 225.691406 73.875 C 225.339844 73.527344 225.070312 73.121094 224.878906 72.664062 C 224.691406 72.203125 224.59375 71.726562 224.59375 71.230469 C 224.59375 70.734375 224.691406 70.257812 224.878906 69.796875 C 225.070312 69.339844 225.339844 68.933594 225.691406 68.582031 C 226.042969 68.230469 226.449219 67.960938 226.90625 67.769531 C 227.363281 67.582031 227.84375 67.488281 228.339844 67.488281 C 228.835938 67.488281 229.3125 67.582031 229.769531 67.769531 C 230.230469 67.960938 230.632812 68.230469 230.984375 68.582031 C 231.335938 68.933594 231.605469 69.339844 231.796875 69.796875 C 231.988281 70.257812 232.082031 70.734375 232.082031 71.230469 Z M 232.082031 71.230469 " fill-opacity="1" fill-rule="nonzero"/><path fill="#323266" d="M 209.621094 71.230469 C 209.621094 71.726562 209.527344 72.203125 209.335938 72.664062 C 209.148438 73.121094 208.875 73.527344 208.527344 73.875 C 208.175781 74.226562 207.769531 74.5 207.3125 74.6875 C 206.851562 74.878906 206.375 74.972656 205.878906 74.972656 C 205.382812 74.972656 204.90625 74.878906 204.445312 74.6875 C 203.988281 74.5 203.582031 74.226562 203.230469 73.875 C 202.882812 73.527344 202.609375 73.121094 202.421875 72.664062 C 202.230469 72.203125 202.136719 71.726562 202.136719 71.230469 C 202.136719 70.734375 202.230469 70.257812 202.421875 69.796875 C 202.609375 69.339844 202.882812 68.933594 203.230469 68.582031 C 203.582031 68.230469 203.988281 67.960938 204.445312 67.769531 C 204.90625 67.582031 205.382812 67.488281 205.878906 67.488281 C 206.375 67.488281 206.851562 67.582031 207.3125 67.769531 C 207.769531 67.960938 208.175781 68.230469 208.527344 68.582031 C 208.875 68.933594 209.148438 69.339844 209.335938 69.796875 C 209.527344 70.257812 209.621094 70.734375 209.621094 71.230469 Z M 209.621094 71.230469 " fill-opacity="1" fill-rule="nonzero"/><path fill="#323266" d="M 187.164062 71.230469 C 187.164062 71.726562 187.066406 72.203125 186.878906 72.664062 C 186.6875 73.121094 186.417969 73.527344 186.066406 73.875 C 185.714844 74.226562 185.3125 74.5 184.851562 74.6875 C 184.394531 74.878906 183.914062 74.972656 183.417969 74.972656 C 182.921875 74.972656 182.445312 74.878906 181.988281 74.6875 C 181.527344 74.5 181.125 74.226562 180.773438 73.875 C 180.421875 73.527344 180.152344 73.121094 179.960938 72.664062 C 179.769531 72.203125 179.675781 71.726562 179.675781 71.230469 C 179.675781 70.734375 179.769531 70.257812 179.960938 69.796875 C 180.152344 69.339844 180.421875 68.933594 180.773438 68.582031 C 181.125 68.230469 181.527344 67.960938 181.988281 67.769531 C 182.445312 67.582031 182.921875 67.488281 183.417969 67.488281 C 183.914062 67.488281 184.394531 67.582031 184.851562 67.769531 C 185.3125 67.960938 185.714844 68.230469 186.066406 68.582031 C 186.417969 68.933594 186.6875 69.339844 186.878906 69.796875 C 187.066406 70.257812 187.164062 70.734375 187.164062 71.230469 Z M 187.164062 71.230469 " fill-opacity="1" fill-rule="nonzero"/><path fill="#323266" d="M 164.703125 71.230469 C 164.703125 71.726562 164.609375 72.203125 164.417969 72.664062 C 164.226562 73.121094 163.957031 73.527344 163.605469 73.875 C 163.253906 74.226562 162.851562 74.5 162.390625 74.6875 C 161.933594 74.878906 161.457031 74.972656 160.960938 74.972656 C 160.464844 74.972656 159.984375 74.878906 159.527344 74.6875 C 159.070312 74.5 158.664062 74.226562 158.3125 73.875 C 157.960938 73.527344 157.691406 73.121094 157.5 72.664062 C 157.3125 72.203125 157.214844 71.726562 157.214844 71.230469 C 157.214844 70.734375 157.3125 70.257812 157.5 69.796875 C 157.691406 69.339844 157.960938 68.933594 158.3125 68.582031 C 158.664062 68.230469 159.070312 67.960938 159.527344 67.769531 C 159.984375 67.582031 160.464844 67.488281 160.960938 67.488281 C 161.457031 67.488281 161.933594 67.582031 162.390625 67.769531 C 162.851562 67.960938 163.253906 68.230469 163.605469 68.582031 C 163.957031 68.933594 164.226562 69.339844 164.417969 69.796875 C 164.609375 70.257812 164.703125 70.734375 164.703125 71.230469 Z M 164.703125 71.230469 " fill-opacity="1" fill-rule="nonzero"/><path fill="#ffffff" d="M 142.242188 71.230469 C 142.242188 71.726562 142.148438 72.203125 141.957031 72.664062 C 141.769531 73.121094 141.5 73.527344 141.148438 73.875 C 140.796875 74.226562 140.390625 74.5 139.933594 74.6875 C 139.472656 74.878906 138.996094 74.972656 138.5 74.972656 C 138.003906 74.972656 137.527344 74.878906 137.066406 74.6875 C 136.609375 74.5 136.203125 74.226562 135.855469 73.875 C 135.503906 73.527344 135.230469 73.121094 135.042969 72.664062 C 134.851562 72.203125 134.757812 71.726562 134.757812 71.230469 C 134.757812 70.734375 134.851562 70.257812 135.042969 69.796875 C 135.230469 69.339844 135.503906 68.933594 135.855469 68.582031 C 136.203125 68.230469 136.609375 67.960938 137.066406 67.769531 C 137.527344 67.582031 138.003906 67.488281 138.5 67.488281 C 138.996094 67.488281 139.472656 67.582031 139.933594 67.769531 C 140.390625 67.960938 140.796875 68.230469 141.148438 68.582031 C 141.5 68.933594 141.769531 69.339844 141.957031 69.796875 C 142.148438 70.257812 142.242188 70.734375 142.242188 71.230469 Z M 142.242188 71.230469 " fill-opacity="1" fill-rule="nonzero"/><path fill="#ffffff" d="M 119.785156 71.230469 C 119.785156 71.726562 119.6875 72.203125 119.5 72.664062 C 119.308594 73.121094 119.039062 73.527344 118.6875 73.875 C 118.335938 74.226562 117.933594 74.5 117.472656 74.6875 C 117.015625 74.878906 116.539062 74.972656 116.039062 74.972656 C 115.542969 74.972656 115.066406 74.878906 114.609375 74.6875 C 114.148438 74.5 113.746094 74.226562 113.394531 73.875 C 113.042969 73.527344 112.773438 73.121094 112.582031 72.664062 C 112.394531 72.203125 112.296875 71.726562 112.296875 71.230469 C 112.296875 70.734375 112.394531 70.257812 112.582031 69.796875 C 112.773438 69.339844 113.042969 68.933594 113.394531 68.582031 C 113.746094 68.230469 114.148438 67.960938 114.609375 67.769531 C 115.066406 67.582031 115.542969 67.488281 116.039062 67.488281 C 116.539062 67.488281 117.015625 67.582031 117.472656 67.769531 C 117.933594 67.960938 118.335938 68.230469 118.6875 68.582031 C 119.039062 68.933594 119.308594 69.339844 119.5 69.796875 C 119.6875 70.257812 119.785156 70.734375 119.785156 71.230469 Z M 119.785156 71.230469 " fill-opacity="1" fill-rule="nonzero"/><path fill="#ffffff" d="M 97.324219 71.230469 C 97.324219 71.726562 97.230469 72.203125 97.039062 72.664062 C 96.851562 73.121094 96.578125 73.527344 96.226562 73.875 C 95.878906 74.226562 95.472656 74.5 95.015625 74.6875 C 94.554688 74.878906 94.078125 74.972656 93.582031 74.972656 C 93.085938 74.972656 92.609375 74.878906 92.148438 74.6875 C 91.691406 74.5 91.285156 74.226562 90.933594 73.875 C 90.582031 73.527344 90.3125 73.121094 90.125 72.664062 C 89.933594 72.203125 89.839844 71.726562 89.839844 71.230469 C 89.839844 70.734375 89.933594 70.257812 90.125 69.796875 C 90.3125 69.339844 90.582031 68.933594 90.933594 68.582031 C 91.285156 68.230469 91.691406 67.960938 92.148438 67.769531 C 92.609375 67.582031 93.085938 67.488281 93.582031 67.488281 C 94.078125 67.488281 94.554688 67.582031 95.015625 67.769531 C 95.472656 67.960938 95.878906 68.230469 96.226562 68.582031 C 96.578125 68.933594 96.851562 69.339844 97.039062 69.796875 C 97.230469 70.257812 97.324219 70.734375 97.324219 71.230469 Z M 97.324219 71.230469 " fill-opacity="1" fill-rule="nonzero"/><path fill="#ffffff" d="M 74.863281 71.230469 C 74.863281 71.726562 74.769531 72.203125 74.582031 72.664062 C 74.390625 73.121094 74.121094 73.527344 73.769531 73.875 C 73.417969 74.226562 73.011719 74.5 72.554688 74.6875 C 72.097656 74.878906 71.617188 74.972656 71.121094 74.972656 C 70.625 74.972656 70.148438 74.878906 69.6875 74.6875 C 69.230469 74.5 68.824219 74.226562 68.476562 73.875 C 68.125 73.527344 67.851562 73.121094 67.664062 72.664062 C 67.472656 72.203125 67.378906 71.726562 67.378906 71.230469 C 67.378906 70.734375 67.472656 70.257812 67.664062 69.796875 C 67.851562 69.339844 68.125 68.933594 68.476562 68.582031 C 68.824219 68.230469 69.230469 67.960938 69.6875 67.769531 C 70.148438 67.582031 70.625 67.488281 71.121094 67.488281 C 71.617188 67.488281 72.097656 67.582031 72.554688 67.769531 C 73.011719 67.960938 73.417969 68.230469 73.769531 68.582031 C 74.121094 68.933594 74.390625 69.339844 74.582031 69.796875 C 74.769531 70.257812 74.863281 70.734375 74.863281 71.230469 Z M 74.863281 71.230469 " fill-opacity="1" fill-rule="nonzero"/><path fill="#ffffff" d="M 52.40625 71.230469 C 52.40625 71.726562 52.3125 72.203125 52.121094 72.664062 C 51.929688 73.121094 51.660156 73.527344 51.308594 73.875 C 50.957031 74.226562 50.554688 74.5 50.09375 74.6875 C 49.636719 74.878906 49.160156 74.972656 48.664062 74.972656 C 48.164062 74.972656 47.6875 74.878906 47.230469 74.6875 C 46.769531 74.5 46.367188 74.226562 46.015625 73.875 C 45.664062 73.527344 45.394531 73.121094 45.203125 72.664062 C 45.015625 72.203125 44.917969 71.726562 44.917969 71.230469 C 44.917969 70.734375 45.015625 70.257812 45.203125 69.796875 C 45.394531 69.339844 45.664062 68.933594 46.015625 68.582031 C 46.367188 68.230469 46.769531 67.960938 47.230469 67.769531 C 47.6875 67.582031 48.164062 67.488281 48.664062 67.488281 C 49.160156 67.488281 49.636719 67.582031 50.09375 67.769531 C 50.554688 67.960938 50.957031 68.230469 51.308594 68.582031 C 51.660156 68.933594 51.929688 69.339844 52.121094 69.796875 C 52.3125 70.257812 52.40625 70.734375 52.40625 71.230469 Z M 52.40625 71.230469 " fill-opacity="1" fill-rule="nonzero"/><path fill="#ffffff" d="M 29.945312 71.230469 C 29.945312 71.726562 29.851562 72.203125 29.660156 72.664062 C 29.472656 73.121094 29.199219 73.527344 28.851562 73.875 C 28.5 74.226562 28.09375 74.5 27.636719 74.6875 C 27.175781 74.878906 26.699219 74.972656 26.203125 74.972656 C 25.707031 74.972656 25.230469 74.878906 24.769531 74.6875 C 24.3125 74.5 23.90625 74.226562 23.554688 73.875 C 23.203125 73.527344 22.933594 73.121094 22.746094 72.664062 C 22.554688 72.203125 22.460938 71.726562 22.460938 71.230469 C 22.460938 70.734375 22.554688 70.257812 22.746094 69.796875 C 22.933594 69.339844 23.203125 68.933594 23.554688 68.582031 C 23.90625 68.230469 24.3125 67.960938 24.769531 67.769531 C 25.230469 67.582031 25.707031 67.488281 26.203125 67.488281 C 26.699219 67.488281 27.175781 67.582031 27.636719 67.769531 C 28.09375 67.960938 28.5 68.230469 28.851562 68.582031 C 29.199219 68.933594 29.472656 69.339844 29.660156 69.796875 C 29.851562 70.257812 29.945312 70.734375 29.945312 71.230469 Z M 29.945312 71.230469 " fill-opacity="1" fill-rule="nonzero"/><path fill="#ffffff" d="M 7.488281 71.230469 C 7.488281 71.726562 7.390625 72.203125 7.203125 72.664062 C 7.011719 73.121094 6.742188 73.527344 6.390625 73.875 C 6.039062 74.226562 5.632812 74.5 5.175781 74.6875 C 4.71875 74.878906 4.238281 74.972656 3.742188 74.972656 C 3.246094 74.972656 2.769531 74.878906 2.3125 74.6875 C 1.851562 74.5 1.449219 74.226562 1.097656 73.875 C 0.746094 73.527344 0.476562 73.121094 0.285156 72.664062 C 0.09375 72.203125 0 71.726562 0 71.230469 C 0 70.734375 0.09375 70.257812 0.285156 69.796875 C 0.476562 69.339844 0.746094 68.933594 1.097656 68.582031 C 1.449219 68.230469 1.851562 67.960938 2.3125 67.769531 C 2.769531 67.582031 3.246094 67.488281 3.742188 67.488281 C 4.238281 67.488281 4.71875 67.582031 5.175781 67.769531 C 5.632812 67.960938 6.039062 68.230469 6.390625 68.582031 C 6.742188 68.933594 7.011719 69.339844 7.203125 69.796875 C 7.390625 70.257812 7.488281 70.734375 7.488281 71.230469 Z M 7.488281 71.230469 " fill-opacity="1" fill-rule="nonzero"/><path fill="#323266" d="M 277 93.6875 C 277 94.1875 276.90625 94.664062 276.714844 95.121094 C 276.527344 95.582031 276.253906 95.984375 275.90625 96.335938 C 275.554688 96.6875 275.148438 96.957031 274.691406 97.148438 C 274.230469 97.335938 273.753906 97.433594 273.257812 97.433594 C 272.761719 97.433594 272.285156 97.335938 271.824219 97.148438 C 271.367188 96.957031 270.960938 96.6875 270.609375 96.335938 C 270.257812 95.984375 269.988281 95.582031 269.800781 95.121094 C 269.609375 94.664062 269.515625 94.1875 269.515625 93.6875 C 269.515625 93.191406 269.609375 92.714844 269.800781 92.257812 C 269.988281 91.796875 270.257812 91.394531 270.609375 91.042969 C 270.960938 90.691406 271.367188 90.421875 271.824219 90.230469 C 272.285156 90.042969 272.761719 89.945312 273.257812 89.945312 C 273.753906 89.945312 274.230469 90.042969 274.691406 90.230469 C 275.148438 90.421875 275.554688 90.691406 275.90625 91.042969 C 276.253906 91.394531 276.527344 91.796875 276.714844 92.257812 C 276.90625 92.714844 277 93.191406 277 93.6875 Z M 277 93.6875 " fill-opacity="1" fill-rule="nonzero"/><path fill="#323266" d="M 254.542969 93.6875 C 254.542969 94.1875 254.445312 94.664062 254.257812 95.121094 C 254.066406 95.582031 253.796875 95.984375 253.445312 96.335938 C 253.09375 96.6875 252.6875 96.957031 252.230469 97.148438 C 251.773438 97.335938 251.292969 97.433594 250.796875 97.433594 C 250.300781 97.433594 249.824219 97.335938 249.367188 97.148438 C 248.90625 96.957031 248.503906 96.6875 248.152344 96.335938 C 247.800781 95.984375 247.53125 95.582031 247.339844 95.121094 C 247.148438 94.664062 247.054688 94.1875 247.054688 93.6875 C 247.054688 93.191406 247.148438 92.714844 247.339844 92.257812 C 247.53125 91.796875 247.800781 91.394531 248.152344 91.042969 C 248.503906 90.691406 248.90625 90.421875 249.367188 90.230469 C 249.824219 90.042969 250.300781 89.945312 250.796875 89.945312 C 251.292969 89.945312 251.773438 90.042969 252.230469 90.230469 C 252.6875 90.421875 253.09375 90.691406 253.445312 91.042969 C 253.796875 91.394531 254.066406 91.796875 254.257812 92.257812 C 254.445312 92.714844 254.542969 93.191406 254.542969 93.6875 Z M 254.542969 93.6875 " fill-opacity="1" fill-rule="nonzero"/><path fill="#323266" d="M 232.082031 93.6875 C 232.082031 94.1875 231.988281 94.664062 231.796875 95.121094 C 231.605469 95.582031 231.335938 95.984375 230.984375 96.335938 C 230.632812 96.6875 230.230469 96.957031 229.769531 97.148438 C 229.3125 97.335938 228.835938 97.433594 228.339844 97.433594 C 227.84375 97.433594 227.363281 97.335938 226.90625 97.148438 C 226.449219 96.957031 226.042969 96.6875 225.691406 96.335938 C 225.339844 95.984375 225.070312 95.582031 224.878906 95.121094 C 224.691406 94.664062 224.59375 94.1875 224.59375 93.6875 C 224.59375 93.191406 224.691406 92.714844 224.878906 92.257812 C 225.070312 91.796875 225.339844 91.394531 225.691406 91.042969 C 226.042969 90.691406 226.449219 90.421875 226.90625 90.230469 C 227.363281 90.042969 227.84375 89.945312 228.339844 89.945312 C 228.835938 89.945312 229.3125 90.042969 229.769531 90.230469 C 230.230469 90.421875 230.632812 90.691406 230.984375 91.042969 C 231.335938 91.394531 231.605469 91.796875 231.796875 92.257812 C 231.988281 92.714844 232.082031 93.191406 232.082031 93.6875 Z M 232.082031 93.6875 " fill-opacity="1" fill-rule="nonzero"/><path fill="#323266" d="M 209.621094 93.6875 C 209.621094 94.1875 209.527344 94.664062 209.335938 95.121094 C 209.148438 95.582031 208.875 95.984375 208.527344 96.335938 C 208.175781 96.6875 207.769531 96.957031 207.3125 97.148438 C 206.851562 97.335938 206.375 97.433594 205.878906 97.433594 C 205.382812 97.433594 204.90625 97.335938 204.445312 97.148438 C 203.988281 96.957031 203.582031 96.6875 203.230469 96.335938 C 202.882812 95.984375 202.609375 95.582031 202.421875 95.121094 C 202.230469 94.664062 202.136719 94.1875 202.136719 93.6875 C 202.136719 93.191406 202.230469 92.714844 202.421875 92.257812 C 202.609375 91.796875 202.882812 91.394531 203.230469 91.042969 C 203.582031 90.691406 203.988281 90.421875 204.445312 90.230469 C 204.90625 90.042969 205.382812 89.945312 205.878906 89.945312 C 206.375 89.945312 206.851562 90.042969 207.3125 90.230469 C 207.769531 90.421875 208.175781 90.691406 208.527344 91.042969 C 208.875 91.394531 209.148438 91.796875 209.335938 92.257812 C 209.527344 92.714844 209.621094 93.191406 209.621094 93.6875 Z M 209.621094 93.6875 " fill-opacity="1" fill-rule="nonzero"/><path fill="#323266" d="M 187.164062 93.6875 C 187.164062 94.1875 187.066406 94.664062 186.878906 95.121094 C 186.6875 95.582031 186.417969 95.984375 186.066406 96.335938 C 185.714844 96.6875 185.3125 96.957031 184.851562 97.148438 C 184.394531 97.335938 183.914062 97.433594 183.417969 97.433594 C 182.921875 97.433594 182.445312 97.335938 181.988281 97.148438 C 181.527344 96.957031 181.125 96.6875 180.773438 96.335938 C 180.421875 95.984375 180.152344 95.582031 179.960938 95.121094 C 179.769531 94.664062 179.675781 94.1875 179.675781 93.6875 C 179.675781 93.191406 179.769531 92.714844 179.960938 92.257812 C 180.152344 91.796875 180.421875 91.394531 180.773438 91.042969 C 181.125 90.691406 181.527344 90.421875 181.988281 90.230469 C 182.445312 90.042969 182.921875 89.945312 183.417969 89.945312 C 183.914062 89.945312 184.394531 90.042969 184.851562 90.230469 C 185.3125 90.421875 185.714844 90.691406 186.066406 91.042969 C 186.417969 91.394531 186.6875 91.796875 186.878906 92.257812 C 187.066406 92.714844 187.164062 93.191406 187.164062 93.6875 Z M 187.164062 93.6875 " fill-opacity="1" fill-rule="nonzero"/><path fill="#323266" d="M 164.703125 93.6875 C 164.703125 94.1875 164.609375 94.664062 164.417969 95.121094 C 164.226562 95.582031 163.957031 95.984375 163.605469 96.335938 C 163.253906 96.6875 162.851562 96.957031 162.390625 97.148438 C 161.933594 97.335938 161.457031 97.433594 160.960938 97.433594 C 160.464844 97.433594 159.984375 97.335938 159.527344 97.148438 C 159.070312 96.957031 158.664062 96.6875 158.3125 96.335938 C 157.960938 95.984375 157.691406 95.582031 157.5 95.121094 C 157.3125 94.664062 157.214844 94.1875 157.214844 93.6875 C 157.214844 93.191406 157.3125 92.714844 157.5 92.257812 C 157.691406 91.796875 157.960938 91.394531 158.3125 91.042969 C 158.664062 90.691406 159.070312 90.421875 159.527344 90.230469 C 159.984375 90.042969 160.464844 89.945312 160.960938 89.945312 C 161.457031 89.945312 161.933594 90.042969 162.390625 90.230469 C 162.851562 90.421875 163.253906 90.691406 163.605469 91.042969 C 163.957031 91.394531 164.226562 91.796875 164.417969 92.257812 C 164.609375 92.714844 164.703125 93.191406 164.703125 93.6875 Z M 164.703125 93.6875 " fill-opacity="1" fill-rule="nonzero"/><path fill="#323266" d="M 142.242188 93.6875 C 142.242188 94.1875 142.148438 94.664062 141.957031 95.121094 C 141.769531 95.582031 141.5 95.984375 141.148438 96.335938 C 140.796875 96.6875 140.390625 96.957031 139.933594 97.148438 C 139.472656 97.335938 138.996094 97.433594 138.5 97.433594 C 138.003906 97.433594 137.527344 97.335938 137.066406 97.148438 C 136.609375 96.957031 136.203125 96.6875 135.855469 96.335938 C 135.503906 95.984375 135.230469 95.582031 135.042969 95.121094 C 134.851562 94.664062 134.757812 94.1875 134.757812 93.6875 C 134.757812 93.191406 134.851562 92.714844 135.042969 92.257812 C 135.230469 91.796875 135.503906 91.394531 135.855469 91.042969 C 136.203125 90.691406 136.609375 90.421875 137.066406 90.230469 C 137.527344 90.042969 138.003906 89.945312 138.5 89.945312 C 138.996094 89.945312 139.472656 90.042969 139.933594 90.230469 C 140.390625 90.421875 140.796875 90.691406 141.148438 91.042969 C 141.5 91.394531 141.769531 91.796875 141.957031 92.257812 C 142.148438 92.714844 142.242188 93.191406 142.242188 93.6875 Z M 142.242188 93.6875 " fill-opacity="1" fill-rule="nonzero"/><path fill="#ffffff" d="M 119.785156 93.6875 C 119.785156 94.1875 119.6875 94.664062 119.5 95.121094 C 119.308594 95.582031 119.039062 95.984375 118.6875 96.335938 C 118.335938 96.6875 117.933594 96.957031 117.472656 97.148438 C 117.015625 97.335938 116.539062 97.433594 116.039062 97.433594 C 115.542969 97.433594 115.066406 97.335938 114.609375 97.148438 C 114.148438 96.957031 113.746094 96.6875 113.394531 96.335938 C 113.042969 95.984375 112.773438 95.582031 112.582031 95.121094 C 112.394531 94.664062 112.296875 94.1875 112.296875 93.6875 C 112.296875 93.191406 112.394531 92.714844 112.582031 92.257812 C 112.773438 91.796875 113.042969 91.394531 113.394531 91.042969 C 113.746094 90.691406 114.148438 90.421875 114.609375 90.230469 C 115.066406 90.042969 115.542969 89.945312 116.039062 89.945312 C 116.539062 89.945312 117.015625 90.042969 117.472656 90.230469 C 117.933594 90.421875 118.335938 90.691406 118.6875 91.042969 C 119.039062 91.394531 119.308594 91.796875 119.5 92.257812 C 119.6875 92.714844 119.785156 93.191406 119.785156 93.6875 Z M 119.785156 93.6875 " fill-opacity="1" fill-rule="nonzero"/><path fill="#ffffff" d="M 97.324219 93.6875 C 97.324219 94.1875 97.230469 94.664062 97.039062 95.121094 C 96.851562 95.582031 96.578125 95.984375 96.226562 96.335938 C 95.878906 96.6875 95.472656 96.957031 95.015625 97.148438 C 94.554688 97.335938 94.078125 97.433594 93.582031 97.433594 C 93.085938 97.433594 92.609375 97.335938 92.148438 97.148438 C 91.691406 96.957031 91.285156 96.6875 90.933594 96.335938 C 90.582031 95.984375 90.3125 95.582031 90.125 95.121094 C 89.933594 94.664062 89.839844 94.1875 89.839844 93.6875 C 89.839844 93.191406 89.933594 92.714844 90.125 92.257812 C 90.3125 91.796875 90.582031 91.394531 90.933594 91.042969 C 91.285156 90.691406 91.691406 90.421875 92.148438 90.230469 C 92.609375 90.042969 93.085938 89.945312 93.582031 89.945312 C 94.078125 89.945312 94.554688 90.042969 95.015625 90.230469 C 95.472656 90.421875 95.878906 90.691406 96.226562 91.042969 C 96.578125 91.394531 96.851562 91.796875 97.039062 92.257812 C 97.230469 92.714844 97.324219 93.191406 97.324219 93.6875 Z M 97.324219 93.6875 " fill-opacity="1" fill-rule="nonzero"/><path fill="#ffffff" d="M 74.863281 93.6875 C 74.863281 94.1875 74.769531 94.664062 74.582031 95.121094 C 74.390625 95.582031 74.121094 95.984375 73.769531 96.335938 C 73.417969 96.6875 73.011719 96.957031 72.554688 97.148438 C 72.097656 97.335938 71.617188 97.433594 71.121094 97.433594 C 70.625 97.433594 70.148438 97.335938 69.6875 97.148438 C 69.230469 96.957031 68.824219 96.6875 68.476562 96.335938 C 68.125 95.984375 67.851562 95.582031 67.664062 95.121094 C 67.472656 94.664062 67.378906 94.1875 67.378906 93.6875 C 67.378906 93.191406 67.472656 92.714844 67.664062 92.257812 C 67.851562 91.796875 68.125 91.394531 68.476562 91.042969 C 68.824219 90.691406 69.230469 90.421875 69.6875 90.230469 C 70.148438 90.042969 70.625 89.945312 71.121094 89.945312 C 71.617188 89.945312 72.097656 90.042969 72.554688 90.230469 C 73.011719 90.421875 73.417969 90.691406 73.769531 91.042969 C 74.121094 91.394531 74.390625 91.796875 74.582031 92.257812 C 74.769531 92.714844 74.863281 93.191406 74.863281 93.6875 Z M 74.863281 93.6875 " fill-opacity="1" fill-rule="nonzero"/><path fill="#ffffff" d="M 52.40625 93.6875 C 52.40625 94.1875 52.3125 94.664062 52.121094 95.121094 C 51.929688 95.582031 51.660156 95.984375 51.308594 96.335938 C 50.957031 96.6875 50.554688 96.957031 50.09375 97.148438 C 49.636719 97.335938 49.160156 97.433594 48.664062 97.433594 C 48.164062 97.433594 47.6875 97.335938 47.230469 97.148438 C 46.769531 96.957031 46.367188 96.6875 46.015625 96.335938 C 45.664062 95.984375 45.394531 95.582031 45.203125 95.121094 C 45.015625 94.664062 44.917969 94.1875 44.917969 93.6875 C 44.917969 93.191406 45.015625 92.714844 45.203125 92.257812 C 45.394531 91.796875 45.664062 91.394531 46.015625 91.042969 C 46.367188 90.691406 46.769531 90.421875 47.230469 90.230469 C 47.6875 90.042969 48.164062 89.945312 48.664062 89.945312 C 49.160156 89.945312 49.636719 90.042969 50.09375 90.230469 C 50.554688 90.421875 50.957031 90.691406 51.308594 91.042969 C 51.660156 91.394531 51.929688 91.796875 52.121094 92.257812 C 52.3125 92.714844 52.40625 93.191406 52.40625 93.6875 Z M 52.40625 93.6875 " fill-opacity="1" fill-rule="nonzero"/><path fill="#ffffff" d="M 29.945312 93.6875 C 29.945312 94.1875 29.851562 94.664062 29.660156 95.121094 C 29.472656 95.582031 29.199219 95.984375 28.851562 96.335938 C 28.5 96.6875 28.09375 96.957031 27.636719 97.148438 C 27.175781 97.335938 26.699219 97.433594 26.203125 97.433594 C 25.707031 97.433594 25.230469 97.335938 24.769531 97.148438 C 24.3125 96.957031 23.90625 96.6875 23.554688 96.335938 C 23.203125 95.984375 22.933594 95.582031 22.746094 95.121094 C 22.554688 94.664062 22.460938 94.1875 22.460938 93.6875 C 22.460938 93.191406 22.554688 92.714844 22.746094 92.257812 C 22.933594 91.796875 23.203125 91.394531 23.554688 91.042969 C 23.90625 90.691406 24.3125 90.421875 24.769531 90.230469 C 25.230469 90.042969 25.707031 89.945312 26.203125 89.945312 C 26.699219 89.945312 27.175781 90.042969 27.636719 90.230469 C 28.09375 90.421875 28.5 90.691406 28.851562 91.042969 C 29.199219 91.394531 29.472656 91.796875 29.660156 92.257812 C 29.851562 92.714844 29.945312 93.191406 29.945312 93.6875 Z M 29.945312 93.6875 " fill-opacity="1" fill-rule="nonzero"/><path fill="#ffffff" d="M 7.488281 93.6875 C 7.488281 94.1875 7.390625 94.664062 7.203125 95.121094 C 7.011719 95.582031 6.742188 95.984375 6.390625 96.335938 C 6.039062 96.6875 5.632812 96.957031 5.175781 97.148438 C 4.71875 97.335938 4.238281 97.433594 3.742188 97.433594 C 3.246094 97.433594 2.769531 97.335938 2.3125 97.148438 C 1.851562 96.957031 1.449219 96.6875 1.097656 96.335938 C 0.746094 95.984375 0.476562 95.582031 0.285156 95.121094 C 0.09375 94.664062 0 94.1875 0 93.6875 C 0 93.191406 0.09375 92.714844 0.285156 92.257812 C 0.476562 91.796875 0.746094 91.394531 1.097656 91.042969 C 1.449219 90.691406 1.851562 90.421875 2.3125 90.230469 C 2.769531 90.042969 3.246094 89.945312 3.742188 89.945312 C 4.238281 89.945312 4.71875 90.042969 5.175781 90.230469 C 5.632812 90.421875 6.039062 90.691406 6.390625 91.042969 C 6.742188 91.394531 7.011719 91.796875 7.203125 92.257812 C 7.390625 92.714844 7.488281 93.191406 7.488281 93.6875 Z M 7.488281 93.6875 " fill-opacity="1" fill-rule="nonzero"/><g clip-path="url(#4a7a858a41)"><path fill="#323266" d="M 277 116.148438 C 277 116.644531 276.90625 117.121094 276.714844 117.582031 C 276.527344 118.039062 276.253906 118.445312 275.90625 118.796875 C 275.554688 119.148438 275.148438 119.417969 274.691406 119.605469 C 274.230469 119.796875 273.753906 119.890625 273.257812 119.890625 C 272.761719 119.890625 272.285156 119.796875 271.824219 119.605469 C 271.367188 119.417969 270.960938 119.148438 270.609375 118.796875 C 270.257812 118.445312 269.988281 118.039062 269.800781 117.582031 C 269.609375 117.121094 269.515625 116.644531 269.515625 116.148438 C 269.515625 115.652344 269.609375 115.175781 269.800781 114.714844 C 269.988281 114.257812 270.257812 113.851562 270.609375 113.5 C 270.960938 113.152344 271.367188 112.878906 271.824219 112.691406 C 272.285156 112.5 272.761719 112.40625 273.257812 112.40625 C 273.753906 112.40625 274.230469 112.5 274.691406 112.691406 C 275.148438 112.878906 275.554688 113.152344 275.90625 113.5 C 276.253906 113.851562 276.527344 114.257812 276.714844 114.714844 C 276.90625 115.175781 277 115.652344 277 116.148438 Z M 277 116.148438 " fill-opacity="1" fill-rule="nonzero"/></g><g clip-path="url(#4b0996f3d2)"><path fill="#323266" d="M 254.542969 116.148438 C 254.542969 116.644531 254.445312 117.121094 254.257812 117.582031 C 254.066406 118.039062 253.796875 118.445312 253.445312 118.796875 C 253.09375 119.148438 252.6875 119.417969 252.230469 119.605469 C 251.773438 119.796875 251.292969 119.890625 250.796875 119.890625 C 250.300781 119.890625 249.824219 119.796875 249.367188 119.605469 C 248.90625 119.417969 248.503906 119.148438 248.152344 118.796875 C 247.800781 118.445312 247.53125 118.039062 247.339844 117.582031 C 247.148438 117.121094 247.054688 116.644531 247.054688 116.148438 C 247.054688 115.652344 247.148438 115.175781 247.339844 114.714844 C 247.53125 114.257812 247.800781 113.851562 248.152344 113.5 C 248.503906 113.152344 248.90625 112.878906 249.367188 112.691406 C 249.824219 112.5 250.300781 112.40625 250.796875 112.40625 C 251.292969 112.40625 251.773438 112.5 252.230469 112.691406 C 252.6875 112.878906 253.09375 113.152344 253.445312 113.5 C 253.796875 113.851562 254.066406 114.257812 254.257812 114.714844 C 254.445312 115.175781 254.542969 115.652344 254.542969 116.148438 Z M 254.542969 116.148438 " fill-opacity="1" fill-rule="nonzero"/></g><g clip-path="url(#cfa0b8da67)"><path fill="#323266" d="M 232.082031 116.148438 C 232.082031 116.644531 231.988281 117.121094 231.796875 117.582031 C 231.605469 118.039062 231.335938 118.445312 230.984375 118.796875 C 230.632812 119.148438 230.230469 119.417969 229.769531 119.605469 C 229.3125 119.796875 228.835938 119.890625 228.339844 119.890625 C 227.84375 119.890625 227.363281 119.796875 226.90625 119.605469 C 226.449219 119.417969 226.042969 119.148438 225.691406 118.796875 C 225.339844 118.445312 225.070312 118.039062 224.878906 117.582031 C 224.691406 117.121094 224.59375 116.644531 224.59375 116.148438 C 224.59375 115.652344 224.691406 115.175781 224.878906 114.714844 C 225.070312 114.257812 225.339844 113.851562 225.691406 113.5 C 226.042969 113.152344 226.449219 112.878906 226.90625 112.691406 C 227.363281 112.5 227.84375 112.40625 228.339844 112.40625 C 228.835938 112.40625 229.3125 112.5 229.769531 112.691406 C 230.230469 112.878906 230.632812 113.152344 230.984375 113.5 C 231.335938 113.851562 231.605469 114.257812 231.796875 114.714844 C 231.988281 115.175781 232.082031 115.652344 232.082031 116.148438 Z M 232.082031 116.148438 " fill-opacity="1" fill-rule="nonzero"/></g><g clip-path="url(#b37f2cade0)"><path fill="#323266" d="M 209.621094 116.148438 C 209.621094 116.644531 209.527344 117.121094 209.335938 117.582031 C 209.148438 118.039062 208.875 118.445312 208.527344 118.796875 C 208.175781 119.148438 207.769531 119.417969 207.3125 119.605469 C 206.851562 119.796875 206.375 119.890625 205.878906 119.890625 C 205.382812 119.890625 204.90625 119.796875 204.445312 119.605469 C 203.988281 119.417969 203.582031 119.148438 203.230469 118.796875 C 202.882812 118.445312 202.609375 118.039062 202.421875 117.582031 C 202.230469 117.121094 202.136719 116.644531 202.136719 116.148438 C 202.136719 115.652344 202.230469 115.175781 202.421875 114.714844 C 202.609375 114.257812 202.882812 113.851562 203.230469 113.5 C 203.582031 113.152344 203.988281 112.878906 204.445312 112.691406 C 204.90625 112.5 205.382812 112.40625 205.878906 112.40625 C 206.375 112.40625 206.851562 112.5 207.3125 112.691406 C 207.769531 112.878906 208.175781 113.152344 208.527344 113.5 C 208.875 113.851562 209.148438 114.257812 209.335938 114.714844 C 209.527344 115.175781 209.621094 115.652344 209.621094 116.148438 Z M 209.621094 116.148438 " fill-opacity="1" fill-rule="nonzero"/></g><g clip-path="url(#f1557e91b4)"><path fill="#323266" d="M 187.164062 116.148438 C 187.164062 116.644531 187.066406 117.121094 186.878906 117.582031 C 186.6875 118.039062 186.417969 118.445312 186.066406 118.796875 C 185.714844 119.148438 185.3125 119.417969 184.851562 119.605469 C 184.394531 119.796875 183.914062 119.890625 183.417969 119.890625 C 182.921875 119.890625 182.445312 119.796875 181.988281 119.605469 C 181.527344 119.417969 181.125 119.148438 180.773438 118.796875 C 180.421875 118.445312 180.152344 118.039062 179.960938 117.582031 C 179.769531 117.121094 179.675781 116.644531 179.675781 116.148438 C 179.675781 115.652344 179.769531 115.175781 179.960938 114.714844 C 180.152344 114.257812 180.421875 113.851562 180.773438 113.5 C 181.125 113.152344 181.527344 112.878906 181.988281 112.691406 C 182.445312 112.5 182.921875 112.40625 183.417969 112.40625 C 183.914062 112.40625 184.394531 112.5 184.851562 112.691406 C 185.3125 112.878906 185.714844 113.152344 186.066406 113.5 C 186.417969 113.851562 186.6875 114.257812 186.878906 114.714844 C 187.066406 115.175781 187.164062 115.652344 187.164062 116.148438 Z M 187.164062 116.148438 " fill-opacity="1" fill-rule="nonzero"/></g><g clip-path="url(#612a01970c)"><path fill="#323266" d="M 164.703125 116.148438 C 164.703125 116.644531 164.609375 117.121094 164.417969 117.582031 C 164.226562 118.039062 163.957031 118.445312 163.605469 118.796875 C 163.253906 119.148438 162.851562 119.417969 162.390625 119.605469 C 161.933594 119.796875 161.457031 119.890625 160.960938 119.890625 C 160.464844 119.890625 159.984375 119.796875 159.527344 119.605469 C 159.070312 119.417969 158.664062 119.148438 158.3125 118.796875 C 157.960938 118.445312 157.691406 118.039062 157.5 117.582031 C 157.3125 117.121094 157.214844 116.644531 157.214844 116.148438 C 157.214844 115.652344 157.3125 115.175781 157.5 114.714844 C 157.691406 114.257812 157.960938 113.851562 158.3125 113.5 C 158.664062 113.152344 159.070312 112.878906 159.527344 112.691406 C 159.984375 112.5 160.464844 112.40625 160.960938 112.40625 C 161.457031 112.40625 161.933594 112.5 162.390625 112.691406 C 162.851562 112.878906 163.253906 113.152344 163.605469 113.5 C 163.957031 113.851562 164.226562 114.257812 164.417969 114.714844 C 164.609375 115.175781 164.703125 115.652344 164.703125 116.148438 Z M 164.703125 116.148438 " fill-opacity="1" fill-rule="nonzero"/></g><g clip-path="url(#3afb9c3e50)"><path fill="#323266" d="M 142.242188 116.148438 C 142.242188 116.644531 142.148438 117.121094 141.957031 117.582031 C 141.769531 118.039062 141.5 118.445312 141.148438 118.796875 C 140.796875 119.148438 140.390625 119.417969 139.933594 119.605469 C 139.472656 119.796875 138.996094 119.890625 138.5 119.890625 C 138.003906 119.890625 137.527344 119.796875 137.066406 119.605469 C 136.609375 119.417969 136.203125 119.148438 135.855469 118.796875 C 135.503906 118.445312 135.230469 118.039062 135.042969 117.582031 C 134.851562 117.121094 134.757812 116.644531 134.757812 116.148438 C 134.757812 115.652344 134.851562 115.175781 135.042969 114.714844 C 135.230469 114.257812 135.503906 113.851562 135.855469 113.5 C 136.203125 113.152344 136.609375 112.878906 137.066406 112.691406 C 137.527344 112.5 138.003906 112.40625 138.5 112.40625 C 138.996094 112.40625 139.472656 112.5 139.933594 112.691406 C 140.390625 112.878906 140.796875 113.152344 141.148438 113.5 C 141.5 113.851562 141.769531 114.257812 141.957031 114.714844 C 142.148438 115.175781 142.242188 115.652344 142.242188 116.148438 Z M 142.242188 116.148438 " fill-opacity="1" fill-rule="nonzero"/></g><g clip-path="url(#45c66a0d75)"><path fill="#323266" d="M 119.785156 116.148438 C 119.785156 116.644531 119.6875 117.121094 119.5 117.582031 C 119.308594 118.039062 119.039062 118.445312 118.6875 118.796875 C 118.335938 119.148438 117.933594 119.417969 117.472656 119.605469 C 117.015625 119.796875 116.539062 119.890625 116.039062 119.890625 C 115.542969 119.890625 115.066406 119.796875 114.609375 119.605469 C 114.148438 119.417969 113.746094 119.148438 113.394531 118.796875 C 113.042969 118.445312 112.773438 118.039062 112.582031 117.582031 C 112.394531 117.121094 112.296875 116.644531 112.296875 116.148438 C 112.296875 115.652344 112.394531 115.175781 112.582031 114.714844 C 112.773438 114.257812 113.042969 113.851562 113.394531 113.5 C 113.746094 113.152344 114.148438 112.878906 114.609375 112.691406 C 115.066406 112.5 115.542969 112.40625 116.039062 112.40625 C 116.539062 112.40625 117.015625 112.5 117.472656 112.691406 C 117.933594 112.878906 118.335938 113.152344 118.6875 113.5 C 119.039062 113.851562 119.308594 114.257812 119.5 114.714844 C 119.6875 115.175781 119.785156 115.652344 119.785156 116.148438 Z M 119.785156 116.148438 " fill-opacity="1" fill-rule="nonzero"/></g><g clip-path="url(#6b3db37c06)"><path fill="#ffffff" d="M 97.324219 116.148438 C 97.324219 116.644531 97.230469 117.121094 97.039062 117.582031 C 96.851562 118.039062 96.578125 118.445312 96.226562 118.796875 C 95.878906 119.148438 95.472656 119.417969 95.015625 119.605469 C 94.554688 119.796875 94.078125 119.890625 93.582031 119.890625 C 93.085938 119.890625 92.609375 119.796875 92.148438 119.605469 C 91.691406 119.417969 91.285156 119.148438 90.933594 118.796875 C 90.582031 118.445312 90.3125 118.039062 90.125 117.582031 C 89.933594 117.121094 89.839844 116.644531 89.839844 116.148438 C 89.839844 115.652344 89.933594 115.175781 90.125 114.714844 C 90.3125 114.257812 90.582031 113.851562 90.933594 113.5 C 91.285156 113.152344 91.691406 112.878906 92.148438 112.691406 C 92.609375 112.5 93.085938 112.40625 93.582031 112.40625 C 94.078125 112.40625 94.554688 112.5 95.015625 112.691406 C 95.472656 112.878906 95.878906 113.152344 96.226562 113.5 C 96.578125 113.851562 96.851562 114.257812 97.039062 114.714844 C 97.230469 115.175781 97.324219 115.652344 97.324219 116.148438 Z M 97.324219 116.148438 " fill-opacity="1" fill-rule="nonzero"/></g><g clip-path="url(#2194a19c28)"><path fill="#ffffff" d="M 74.863281 116.148438 C 74.863281 116.644531 74.769531 117.121094 74.582031 117.582031 C 74.390625 118.039062 74.121094 118.445312 73.769531 118.796875 C 73.417969 119.148438 73.011719 119.417969 72.554688 119.605469 C 72.097656 119.796875 71.617188 119.890625 71.121094 119.890625 C 70.625 119.890625 70.148438 119.796875 69.6875 119.605469 C 69.230469 119.417969 68.824219 119.148438 68.476562 118.796875 C 68.125 118.445312 67.851562 118.039062 67.664062 117.582031 C 67.472656 117.121094 67.378906 116.644531 67.378906 116.148438 C 67.378906 115.652344 67.472656 115.175781 67.664062 114.714844 C 67.851562 114.257812 68.125 113.851562 68.476562 113.5 C 68.824219 113.152344 69.230469 112.878906 69.6875 112.691406 C 70.148438 112.5 70.625 112.40625 71.121094 112.40625 C 71.617188 112.40625 72.097656 112.5 72.554688 112.691406 C 73.011719 112.878906 73.417969 113.152344 73.769531 113.5 C 74.121094 113.851562 74.390625 114.257812 74.582031 114.714844 C 74.769531 115.175781 74.863281 115.652344 74.863281 116.148438 Z M 74.863281 116.148438 " fill-opacity="1" fill-rule="nonzero"/></g><g clip-path="url(#1f60306429)"><path fill="#ffffff" d="M 52.40625 116.148438 C 52.40625 116.644531 52.3125 117.121094 52.121094 117.582031 C 51.929688 118.039062 51.660156 118.445312 51.308594 118.796875 C 50.957031 119.148438 50.554688 119.417969 50.09375 119.605469 C 49.636719 119.796875 49.160156 119.890625 48.664062 119.890625 C 48.164062 119.890625 47.6875 119.796875 47.230469 119.605469 C 46.769531 119.417969 46.367188 119.148438 46.015625 118.796875 C 45.664062 118.445312 45.394531 118.039062 45.203125 117.582031 C 45.015625 117.121094 44.917969 116.644531 44.917969 116.148438 C 44.917969 115.652344 45.015625 115.175781 45.203125 114.714844 C 45.394531 114.257812 45.664062 113.851562 46.015625 113.5 C 46.367188 113.152344 46.769531 112.878906 47.230469 112.691406 C 47.6875 112.5 48.164062 112.40625 48.664062 112.40625 C 49.160156 112.40625 49.636719 112.5 50.09375 112.691406 C 50.554688 112.878906 50.957031 113.152344 51.308594 113.5 C 51.660156 113.851562 51.929688 114.257812 52.121094 114.714844 C 52.3125 115.175781 52.40625 115.652344 52.40625 116.148438 Z M 52.40625 116.148438 " fill-opacity="1" fill-rule="nonzero"/></g><g clip-path="url(#fb5f472e8f)"><path fill="#ffffff" d="M 29.945312 116.148438 C 29.945312 116.644531 29.851562 117.121094 29.660156 117.582031 C 29.472656 118.039062 29.199219 118.445312 28.851562 118.796875 C 28.5 119.148438 28.09375 119.417969 27.636719 119.605469 C 27.175781 119.796875 26.699219 119.890625 26.203125 119.890625 C 25.707031 119.890625 25.230469 119.796875 24.769531 119.605469 C 24.3125 119.417969 23.90625 119.148438 23.554688 118.796875 C 23.203125 118.445312 22.933594 118.039062 22.746094 117.582031 C 22.554688 117.121094 22.460938 116.644531 22.460938 116.148438 C 22.460938 115.652344 22.554688 115.175781 22.746094 114.714844 C 22.933594 114.257812 23.203125 113.851562 23.554688 113.5 C 23.90625 113.152344 24.3125 112.878906 24.769531 112.691406 C 25.230469 112.5 25.707031 112.40625 26.203125 112.40625 C 26.699219 112.40625 27.175781 112.5 27.636719 112.691406 C 28.09375 112.878906 28.5 113.152344 28.851562 113.5 C 29.199219 113.851562 29.472656 114.257812 29.660156 114.714844 C 29.851562 115.175781 29.945312 115.652344 29.945312 116.148438 Z M 29.945312 116.148438 " fill-opacity="1" fill-rule="nonzero"/></g><g clip-path="url(#32f58337bc)"><path fill="#ffffff" d="M 7.488281 116.148438 C 7.488281 116.644531 7.390625 117.121094 7.203125 117.582031 C 7.011719 118.039062 6.742188 118.445312 6.390625 118.796875 C 6.039062 119.148438 5.632812 119.417969 5.175781 119.605469 C 4.71875 119.796875 4.238281 119.890625 3.742188 119.890625 C 3.246094 119.890625 2.769531 119.796875 2.3125 119.605469 C 1.851562 119.417969 1.449219 119.148438 1.097656 118.796875 C 0.746094 118.445312 0.476562 118.039062 0.285156 117.582031 C 0.09375 117.121094 0 116.644531 0 116.148438 C 0 115.652344 0.09375 115.175781 0.285156 114.714844 C 0.476562 114.257812 0.746094 113.851562 1.097656 113.5 C 1.449219 113.152344 1.851562 112.878906 2.3125 112.691406 C 2.769531 112.5 3.246094 112.40625 3.742188 112.40625 C 4.238281 112.40625 4.71875 112.5 5.175781 112.691406 C 5.632812 112.878906 6.039062 113.152344 6.390625 113.5 C 6.742188 113.851562 7.011719 114.257812 7.203125 114.714844 C 7.390625 115.175781 7.488281 115.652344 7.488281 116.148438 Z M 7.488281 116.148438 " fill-opacity="1" fill-rule="nonzero"/></g></svg>