<svg xmlns="http://www.w3.org/2000/svg" xmlns:xlink="http://www.w3.org/1999/xlink" width="1170" zoomAndPan="magnify" viewBox="0 0 877.5 191.999996" height="256" preserveAspectRatio="xMidYMid meet" version="1.0"><defs><clipPath id="f8f9fbe2e5"><path d="M 0 0.0546875 L 877 0.0546875 L 877 191.945312 L 0 191.945312 Z M 0 0.0546875 " clip-rule="nonzero"/></clipPath><clipPath id="147f5276c7"><path d="M 0 0.0546875 L 877 0.0546875 L 877 161 L 0 161 Z M 0 0.0546875 " clip-rule="nonzero"/></clipPath><clipPath id="5d02ff3b88"><path d="M 0 170.207031 L 0 21.792969 C 0 20.363281 0.140625 18.953125 0.417969 17.550781 C 0.695312 16.152344 1.109375 14.792969 1.65625 13.472656 C 2.199219 12.15625 2.871094 10.902344 3.664062 9.714844 C 4.457031 8.527344 5.359375 7.429688 6.367188 6.421875 C 7.375 5.414062 8.472656 4.511719 9.660156 3.71875 C 10.847656 2.925781 12.101562 2.253906 13.417969 1.710938 C 14.738281 1.164062 16.097656 0.75 17.496094 0.472656 C 18.898438 0.195312 20.308594 0.0546875 21.738281 0.0546875 L 855.261719 0.0546875 C 856.691406 0.0546875 858.105469 0.195312 859.503906 0.472656 C 860.902344 0.75 862.261719 1.164062 863.582031 1.710938 C 864.898438 2.253906 866.152344 2.925781 867.339844 3.71875 C 868.527344 4.511719 869.625 5.414062 870.632812 6.421875 C 871.644531 7.429688 872.542969 8.527344 873.335938 9.714844 C 874.128906 10.902344 874.800781 12.15625 875.34375 13.472656 C 875.890625 14.792969 876.304688 16.152344 876.582031 17.550781 C 876.859375 18.953125 877 20.363281 877 21.792969 L 877 170.207031 C 877 171.636719 876.859375 173.046875 876.582031 174.449219 C 876.304688 175.847656 875.890625 177.207031 875.34375 178.527344 C 874.800781 179.84375 874.128906 181.097656 873.335938 182.285156 C 872.542969 183.472656 871.644531 184.570312 870.632812 185.578125 C 869.625 186.585938 868.527344 187.488281 867.339844 188.28125 C 866.152344 189.074219 864.898438 189.746094 863.582031 190.289062 C 862.261719 190.835938 860.902344 191.25 859.503906 191.527344 C 858.105469 191.804688 856.691406 191.945312 855.261719 191.945312 L 21.738281 191.945312 C 20.308594 191.945312 18.898438 191.804688 17.496094 191.527344 C 16.097656 191.25 14.738281 190.835938 13.417969 190.289062 C 12.101562 189.746094 10.847656 189.074219 9.660156 188.28125 C 8.472656 187.488281 7.375 186.585938 6.367188 185.578125 C 5.359375 184.570312 4.457031 183.472656 3.664062 182.285156 C 2.871094 181.097656 2.199219 179.84375 1.65625 178.527344 C 1.109375 177.207031 0.695312 175.847656 0.417969 174.449219 C 0.140625 173.046875 0 171.636719 0 170.207031 Z M 0 170.207031 " clip-rule="nonzero"/></clipPath><clipPath id="482ca46e95"><path d="M 0 79.839844 L 7.308594 90.539062 C 14.617188 101.242188 29.234375 122.644531 43.851562 108.398438 C 58.464844 93.882812 73.082031 44.390625 87.699219 33.488281 C 102.316406 22.988281 116.933594 51.078125 131.550781 61.980469 C 146.167969 72.480469 160.785156 65.792969 175.398438 61.980469 C 190.015625 58.4375 204.632812 58.4375 219.25 51.277344 C 233.867188 44.390625 248.484375 29.675781 263.101562 47.734375 C 277.714844 65.792969 292.332031 115.289062 306.949219 140.503906 C 321.566406 165.453125 336.183594 165.453125 350.800781 144.046875 C 365.417969 122.644531 380.035156 79.839844 394.648438 58.433594 C 409.265625 37.03125 423.882812 37.03125 438.5 29.875 C 453.117188 22.988281 467.734375 8.273438 482.351562 26.332031 C 496.96875 44.390625 511.582031 93.886719 526.199219 119.101562 C 540.816406 144.050781 555.433594 144.050781 570.050781 122.648438 C 584.667969 101.242188 599.285156 58.4375 613.898438 44.191406 C 628.515625 29.675781 643.132812 44.390625 657.75 65.59375 C 672.367188 87.199219 686.984375 115.289062 701.601562 136.894531 C 716.21875 158.097656 730.832031 172.8125 745.449219 147.59375 C 760.066406 122.648438 774.683594 58.4375 789.300781 51.28125 C 803.917969 44.390625 818.535156 93.886719 833.148438 94.085938 C 847.765625 93.886719 862.382812 44.390625 869.691406 19.175781 L 877 -5.773438 L 877 -27.179688 L 0 -27.179688 Z M 0 79.839844 " clip-rule="nonzero"/></clipPath><linearGradient x1="0.50603" gradientTransform="matrix(877.000285, 0, 0, 188.058934, 0, -27.178055)" y1="1.066231" x2="0.500803" gradientUnits="userSpaceOnUse" y2="0.141977" id="fec3e290c8"><stop stop-opacity="1" stop-color="rgb(44.709778%, 47.059631%, 50.19989%)" offset="0"/><stop stop-opacity="1" stop-color="rgb(44.599915%, 46.940613%, 50.15564%)" offset="0.00611828"/><stop stop-opacity="1" stop-color="rgb(44.491577%, 46.821594%, 50.111389%)" offset="0.015625"/><stop stop-opacity="1" stop-color="rgb(44.320679%, 46.633911%, 50.041199%)" offset="0.03125"/><stop stop-opacity="1" stop-color="rgb(43.978882%, 46.260071%, 49.902344%)" offset="0.046875"/><stop stop-opacity="1" stop-color="rgb(43.637085%, 45.88623%, 49.763489%)" offset="0.0625"/><stop stop-opacity="1" stop-color="rgb(43.295288%, 45.51239%, 49.624634%)" offset="0.078125"/><stop stop-opacity="1" stop-color="rgb(42.953491%, 45.13855%, 49.485779%)" offset="0.09375"/><stop stop-opacity="1" stop-color="rgb(42.611694%, 44.764709%, 49.346924%)" offset="0.109375"/><stop stop-opacity="1" stop-color="rgb(42.269897%, 44.392395%, 49.208069%)" offset="0.125"/><stop stop-opacity="1" stop-color="rgb(41.929626%, 44.018555%, 49.069214%)" offset="0.140625"/><stop stop-opacity="1" stop-color="rgb(41.58783%, 43.644714%, 48.930359%)" offset="0.15625"/><stop stop-opacity="1" stop-color="rgb(41.246033%, 43.270874%, 48.791504%)" offset="0.171875"/><stop stop-opacity="1" stop-color="rgb(40.904236%, 42.897034%, 48.652649%)" offset="0.1875"/><stop stop-opacity="1" stop-color="rgb(40.562439%, 42.523193%, 48.513794%)" offset="0.203125"/><stop stop-opacity="1" stop-color="rgb(40.220642%, 42.149353%, 48.374939%)" offset="0.21875"/><stop stop-opacity="1" stop-color="rgb(39.878845%, 41.777039%, 48.236084%)" offset="0.234375"/><stop stop-opacity="1" stop-color="rgb(39.537048%, 41.403198%, 48.097229%)" offset="0.25"/><stop stop-opacity="1" stop-color="rgb(39.195251%, 41.029358%, 47.958374%)" offset="0.265625"/><stop stop-opacity="1" stop-color="rgb(38.853455%, 40.655518%, 47.819519%)" offset="0.28125"/><stop stop-opacity="1" stop-color="rgb(38.513184%, 40.281677%, 47.680664%)" offset="0.296875"/><stop stop-opacity="1" stop-color="rgb(38.171387%, 39.907837%, 47.541809%)" offset="0.3125"/><stop stop-opacity="1" stop-color="rgb(37.82959%, 39.533997%, 47.402954%)" offset="0.328125"/><stop stop-opacity="1" stop-color="rgb(37.487793%, 39.161682%, 47.264099%)" offset="0.34375"/><stop stop-opacity="1" stop-color="rgb(37.145996%, 38.787842%, 47.125244%)" offset="0.359375"/><stop stop-opacity="1" stop-color="rgb(36.804199%, 38.414001%, 46.986389%)" offset="0.375"/><stop stop-opacity="1" stop-color="rgb(36.462402%, 38.040161%, 46.847534%)" offset="0.390625"/><stop stop-opacity="1" stop-color="rgb(36.120605%, 37.666321%, 46.708679%)" offset="0.40625"/><stop stop-opacity="1" stop-color="rgb(35.778809%, 37.29248%, 46.569824%)" offset="0.421875"/><stop stop-opacity="1" stop-color="rgb(35.438538%, 36.91864%, 46.430969%)" offset="0.4375"/><stop stop-opacity="1" stop-color="rgb(35.096741%, 36.5448%, 46.292114%)" offset="0.453125"/><stop stop-opacity="1" stop-color="rgb(34.754944%, 36.172485%, 46.153259%)" offset="0.46875"/><stop stop-opacity="1" stop-color="rgb(34.413147%, 35.798645%, 46.014404%)" offset="0.484375"/><stop stop-opacity="1" stop-color="rgb(34.07135%, 35.424805%, 45.875549%)" offset="0.5"/><stop stop-opacity="1" stop-color="rgb(33.729553%, 35.050964%, 45.736694%)" offset="0.515625"/><stop stop-opacity="1" stop-color="rgb(33.387756%, 34.677124%, 45.597839%)" offset="0.53125"/><stop stop-opacity="1" stop-color="rgb(33.045959%, 34.303284%, 45.458984%)" offset="0.546875"/><stop stop-opacity="1" stop-color="rgb(32.704163%, 33.929443%, 45.320129%)" offset="0.5625"/><stop stop-opacity="1" stop-color="rgb(32.362366%, 33.557129%, 45.181274%)" offset="0.578125"/><stop stop-opacity="1" stop-color="rgb(32.022095%, 33.183289%, 45.042419%)" offset="0.59375"/><stop stop-opacity="1" stop-color="rgb(31.680298%, 32.809448%, 44.903564%)" offset="0.609375"/><stop stop-opacity="1" stop-color="rgb(31.338501%, 32.435608%, 44.764709%)" offset="0.625"/><stop stop-opacity="1" stop-color="rgb(30.996704%, 32.061768%, 44.625854%)" offset="0.640625"/><stop stop-opacity="1" stop-color="rgb(30.654907%, 31.687927%, 44.487%)" offset="0.65625"/><stop stop-opacity="1" stop-color="rgb(30.31311%, 31.314087%, 44.348145%)" offset="0.671875"/><stop stop-opacity="1" stop-color="rgb(29.971313%, 30.941772%, 44.20929%)" offset="0.6875"/><stop stop-opacity="1" stop-color="rgb(29.629517%, 30.567932%, 44.070435%)" offset="0.703125"/><stop stop-opacity="1" stop-color="rgb(29.28772%, 30.194092%, 43.93158%)" offset="0.71875"/><stop stop-opacity="1" stop-color="rgb(28.945923%, 29.820251%, 43.792725%)" offset="0.734375"/><stop stop-opacity="1" stop-color="rgb(28.605652%, 29.446411%, 43.65387%)" offset="0.75"/><stop stop-opacity="1" stop-color="rgb(28.263855%, 29.072571%, 43.515015%)" offset="0.765625"/><stop stop-opacity="1" stop-color="rgb(27.922058%, 28.69873%, 43.37616%)" offset="0.78125"/><stop stop-opacity="1" stop-color="rgb(27.580261%, 28.326416%, 43.237305%)" offset="0.796875"/><stop stop-opacity="1" stop-color="rgb(27.238464%, 27.952576%, 43.09845%)" offset="0.8125"/><stop stop-opacity="1" stop-color="rgb(26.896667%, 27.578735%, 42.959595%)" offset="0.828125"/><stop stop-opacity="1" stop-color="rgb(26.554871%, 27.204895%, 42.82074%)" offset="0.84375"/><stop stop-opacity="1" stop-color="rgb(26.213074%, 26.831055%, 42.681885%)" offset="0.859375"/><stop stop-opacity="1" stop-color="rgb(25.871277%, 26.457214%, 42.54303%)" offset="0.875"/><stop stop-opacity="1" stop-color="rgb(25.52948%, 26.083374%, 42.404175%)" offset="0.890625"/><stop stop-opacity="1" stop-color="rgb(25.189209%, 25.71106%, 42.26532%)" offset="0.90625"/><stop stop-opacity="1" stop-color="rgb(24.847412%, 25.337219%, 42.126465%)" offset="0.921875"/><stop stop-opacity="1" stop-color="rgb(24.505615%, 24.963379%, 41.98761%)" offset="0.9375"/><stop stop-opacity="1" stop-color="rgb(24.163818%, 24.589539%, 41.848755%)" offset="0.953125"/><stop stop-opacity="1" stop-color="rgb(23.822021%, 24.215698%, 41.7099%)" offset="0.96875"/><stop stop-opacity="1" stop-color="rgb(23.480225%, 23.841858%, 41.571045%)" offset="0.984375"/><stop stop-opacity="1" stop-color="rgb(23.138428%, 23.468018%, 41.43219%)" offset="0.993882"/><stop stop-opacity="1" stop-color="rgb(22.967529%, 23.28186%, 41.363525%)" offset="1"/></linearGradient></defs><g clip-path="url(#f8f9fbe2e5)"><path fill="#ffffff" d="M 0 0.0546875 L 877 0.0546875 L 877 191.945312 L 0 191.945312 Z M 0 0.0546875 " fill-opacity="1" fill-rule="nonzero"/><path fill="#ffffff" d="M 0 0.0546875 L 877 0.0546875 L 877 191.945312 L 0 191.945312 Z M 0 0.0546875 " fill-opacity="1" fill-rule="nonzero"/><path fill="#323266" d="M 21.738281 0.0546875 L 855.261719 0.0546875 C 855.972656 0.0546875 856.683594 0.0898438 857.394531 0.160156 C 858.101562 0.230469 858.804688 0.332031 859.503906 0.472656 C 860.203125 0.609375 860.890625 0.785156 861.574219 0.992188 C 862.253906 1.199219 862.921875 1.4375 863.582031 1.710938 C 864.238281 1.980469 864.882812 2.285156 865.507812 2.621094 C 866.136719 2.957031 866.746094 3.324219 867.339844 3.71875 C 867.929688 4.113281 868.503906 4.539062 869.054688 4.988281 C 869.601562 5.441406 870.128906 5.917969 870.632812 6.421875 C 871.136719 6.925781 871.613281 7.453125 872.066406 8.003906 C 872.515625 8.550781 872.941406 9.125 873.335938 9.714844 C 873.730469 10.308594 874.097656 10.917969 874.433594 11.546875 C 874.769531 12.171875 875.074219 12.816406 875.34375 13.472656 C 875.617188 14.132812 875.859375 14.800781 876.0625 15.480469 C 876.269531 16.164062 876.445312 16.851562 876.582031 17.550781 C 876.722656 18.25 876.824219 18.953125 876.894531 19.660156 C 876.964844 20.371094 877 21.082031 877 21.792969 L 877 170.207031 C 877 170.917969 876.964844 171.628906 876.894531 172.339844 C 876.824219 173.046875 876.722656 173.75 876.582031 174.449219 C 876.445312 175.148438 876.269531 175.835938 876.0625 176.519531 C 875.859375 177.199219 875.617188 177.867188 875.34375 178.527344 C 875.074219 179.183594 874.769531 179.828125 874.433594 180.453125 C 874.097656 181.082031 873.730469 181.691406 873.335938 182.285156 C 872.941406 182.875 872.515625 183.449219 872.066406 183.996094 C 871.613281 184.546875 871.136719 185.074219 870.632812 185.578125 C 870.128906 186.082031 869.601562 186.558594 869.054688 187.011719 C 868.503906 187.460938 867.929688 187.886719 867.339844 188.28125 C 866.746094 188.675781 866.136719 189.042969 865.507812 189.378906 C 864.882812 189.714844 864.238281 190.019531 863.582031 190.289062 C 862.921875 190.5625 862.253906 190.800781 861.574219 191.007812 C 860.890625 191.214844 860.203125 191.390625 859.503906 191.527344 C 858.804688 191.667969 858.101562 191.769531 857.394531 191.839844 C 856.683594 191.910156 855.972656 191.945312 855.261719 191.945312 L 21.738281 191.945312 C 21.027344 191.945312 20.316406 191.910156 19.605469 191.839844 C 18.898438 191.769531 18.195312 191.667969 17.496094 191.527344 C 16.796875 191.390625 16.109375 191.214844 15.425781 191.007812 C 14.746094 190.800781 14.078125 190.5625 13.417969 190.289062 C 12.761719 190.019531 12.117188 189.714844 11.492188 189.378906 C 10.863281 189.042969 10.253906 188.675781 9.660156 188.28125 C 9.070312 187.886719 8.496094 187.460938 7.949219 187.011719 C 7.398438 186.558594 6.871094 186.082031 6.367188 185.578125 C 5.863281 185.074219 5.386719 184.546875 4.933594 183.996094 C 4.484375 183.449219 4.058594 182.875 3.664062 182.285156 C 3.269531 181.691406 2.902344 181.082031 2.566406 180.453125 C 2.230469 179.828125 1.925781 179.183594 1.65625 178.527344 C 1.382812 177.867188 1.144531 177.199219 0.9375 176.519531 C 0.730469 175.835938 0.554688 175.148438 0.417969 174.449219 C 0.277344 173.75 0.175781 173.046875 0.105469 172.339844 C 0.0351562 171.628906 0 170.917969 0 170.207031 L 0 21.792969 C 0 21.082031 0.0351562 20.371094 0.105469 19.660156 C 0.175781 18.953125 0.277344 18.25 0.417969 17.550781 C 0.554688 16.851562 0.730469 16.164062 0.9375 15.480469 C 1.144531 14.800781 1.382812 14.132812 1.65625 13.472656 C 1.925781 12.816406 2.230469 12.171875 2.566406 11.546875 C 2.902344 10.917969 3.269531 10.308594 3.664062 9.714844 C 4.058594 9.125 4.484375 8.550781 4.933594 8.003906 C 5.386719 7.453125 5.863281 6.925781 6.367188 6.421875 C 6.871094 5.917969 7.398438 5.441406 7.949219 4.988281 C 8.496094 4.539062 9.070312 4.113281 9.660156 3.71875 C 10.253906 3.324219 10.863281 2.957031 11.492188 2.621094 C 12.117188 2.285156 12.761719 1.980469 13.417969 1.710938 C 14.078125 1.4375 14.746094 1.199219 15.425781 0.992188 C 16.109375 0.785156 16.796875 0.609375 17.496094 0.472656 C 18.195312 0.332031 18.898438 0.230469 19.605469 0.160156 C 20.316406 0.0898438 21.027344 0.0546875 21.738281 0.0546875 Z M 21.738281 0.0546875 " fill-opacity="1" fill-rule="nonzero"/></g><g clip-path="url(#147f5276c7)"><g clip-path="url(#5d02ff3b88)"><g clip-path="url(#482ca46e95)"><path fill="url(#fec3e290c8)" d="M 0 0.0546875 L 0 172.8125 L 877 172.8125 L 877 0.0546875 Z M 0 0.0546875 " fill-rule="nonzero"/></g></g></g></svg>